<svg width="59" height="59" viewBox="0 0 59 59" fill="none" xmlns="http://www.w3.org/2000/svg">
<rect opacity="0.08" width="59" height="59" rx="12" fill="url(#paint0_linear_60_1541)"/>
<g clip-path="url(#clip0_60_1541)">
<path d="M44.0075 35.9828C43.8229 36.393 44.0012 36.879 44.4049 37.0659C44.8085 37.2535 45.2868 37.0723 45.4708 36.6622C45.9705 35.5485 46.3565 34.3793 46.6152 33.1699C46.8675 31.9847 47 30.7569 47 29.4996C47 24.7297 45.0973 20.4114 42.0213 17.2853C38.9446 14.1591 34.6947 12.2264 30.0003 12.2264C27.989 12.2264 26.053 12.5855 24.2507 13.2438C22.9261 13.7279 21.6781 14.3722 20.5331 15.1535L20.69 12.8732C20.7195 12.4222 20.3831 12.0319 19.9392 12.0019C19.4954 11.9719 19.1112 12.3138 19.0805 12.7648L18.8024 16.8152C18.7741 17.2451 19.078 17.6189 19.4898 17.6801L23.3549 18.4251C23.7924 18.5087 24.2124 18.2153 24.2946 17.7713C24.3769 17.3267 24.0887 16.9 23.6512 16.8164L21.5758 16.4165C22.5758 15.7499 23.6537 15.1988 24.7924 14.7836C26.412 14.1923 28.1654 13.8695 29.9991 13.8695C34.2471 13.8695 38.0946 15.6192 40.8775 18.4487C43.6616 21.2776 45.3842 25.1858 45.3842 29.5022C45.3842 30.6459 45.2642 31.7577 45.0364 32.8261C44.8003 33.9328 44.4519 34.991 44.0062 35.9854L44.0075 35.9828ZM39.3106 46.1267C39.2811 46.5777 39.6176 46.9681 40.0614 46.998C40.5052 47.028 40.8894 46.6861 40.9202 46.2352L41.1983 42.1848C41.2265 41.7548 40.9227 41.3811 40.5109 41.3198L36.6458 40.5748C36.2082 40.4912 35.7882 40.7847 35.706 41.2286C35.6238 41.6732 35.9119 42.0999 36.3495 42.1835L38.4248 42.5834C37.4248 43.25 36.3469 43.8011 35.2082 44.2163C33.5886 44.8076 31.8353 45.1304 30.0016 45.1304C25.7535 45.1304 21.906 43.3807 19.1232 40.5512C16.3384 37.7223 14.6158 33.8141 14.6158 29.4977C14.6158 28.354 14.7358 27.2423 14.9636 26.1738C15.1997 25.0665 15.5481 24.0089 15.9938 23.0145C16.1783 22.6044 16.0001 22.1183 15.5964 21.9314C15.1928 21.7439 14.7144 21.9251 14.5305 22.3352C14.0308 23.4489 13.6435 24.6181 13.3861 25.8275C13.1331 27.0126 13 28.2405 13 29.4977C13.0006 34.2676 14.9034 38.586 17.9794 41.7121C21.056 44.8383 25.3059 46.771 30.0003 46.771C32.0117 46.771 33.9477 46.4119 35.75 45.7542C37.0745 45.2701 38.3225 44.6258 39.4675 43.8445L39.3106 46.1248V46.1267Z" fill="#807D76"/>
<path d="M29.9991 31.6162C29.4235 31.6162 28.9031 31.3796 28.5258 30.9968C28.1491 30.6141 27.9162 30.0847 27.9162 29.4998C27.9162 28.9149 28.1491 28.3861 28.5258 28.0027C28.9024 27.62 29.4235 27.3834 29.9991 27.3834C30.5748 27.3834 31.0952 27.62 31.4725 28.0027C31.8491 28.3854 32.082 28.9149 32.082 29.4998C32.082 30.0847 31.8491 30.6135 31.4725 30.9968C31.0958 31.3796 30.5748 31.6162 29.9991 31.6162ZM27.3839 32.1565C28.0537 32.8371 28.9778 33.2568 29.9991 33.2568C31.0205 33.2568 31.9452 32.8358 32.6144 32.1565C33.2842 31.4759 33.6972 30.5369 33.6972 29.4992C33.6972 28.4614 33.2829 27.5218 32.6144 26.8418C31.9445 26.1612 31.0205 25.7415 29.9991 25.7415C28.9778 25.7415 28.0531 26.1625 27.3839 26.8418C26.7141 27.5224 26.301 28.4614 26.301 29.4992C26.301 30.5369 26.7153 31.4765 27.3839 32.1565ZM32.4028 37.3678C32.642 37.2925 32.8755 37.207 33.1009 37.1126C33.3319 37.0151 33.5566 36.9079 33.7745 36.7912L35.0802 38.1179C35.3953 38.4381 35.9063 38.4381 36.2215 38.1179L38.4795 35.8235C38.7946 35.5033 38.7946 34.9841 38.4795 34.6639L37.175 33.3372C37.2899 33.1152 37.3954 32.8875 37.4914 32.6527C37.5856 32.4237 37.6697 32.1865 37.7438 31.9422H39.5906C40.037 31.9422 40.3986 31.5747 40.3986 31.1225V27.8777C40.3986 27.4242 40.037 27.0581 39.5906 27.0581H37.7438C37.6697 26.815 37.5856 26.5778 37.4927 26.3488C37.3966 26.114 37.2912 25.8857 37.1763 25.6643L38.482 24.3376C38.7971 24.0174 38.7971 23.4982 38.482 23.178L36.224 20.8836C35.9088 20.5634 35.3978 20.5634 35.0827 20.8836L33.777 22.2091C33.5585 22.0923 33.3344 21.9852 33.1034 21.8876C32.878 21.7919 32.6445 21.7064 32.4041 21.6312V19.7546C32.4041 19.301 32.0425 18.9336 31.5974 18.9336H28.404C27.9576 18.9336 27.5973 19.301 27.5973 19.7546V21.6312C27.3581 21.7064 27.1246 21.7919 26.8992 21.8863C26.6682 21.9839 26.4435 22.0911 26.2257 22.2078L24.9199 20.881C24.6048 20.5608 24.0938 20.5608 23.7787 20.881L21.5206 23.1754C21.2055 23.4956 21.2055 24.0148 21.5206 24.335L22.8251 25.6618C22.7102 25.8838 22.6048 26.1115 22.5087 26.3462C22.4145 26.5752 22.3304 26.8125 22.2564 27.0568H20.4095C19.9632 27.0568 19.6016 27.4242 19.6016 27.8764V31.1212C19.6016 31.5747 19.9632 31.9409 20.4095 31.9409H22.2564C22.3304 32.1839 22.4145 32.4212 22.5087 32.6502C22.6048 32.8849 22.7102 33.1133 22.8251 33.3346L21.5206 34.6613C21.2055 34.9816 21.2055 35.5008 21.5206 35.821L23.7787 38.1154C24.0938 38.4356 24.6048 38.4356 24.9199 38.1154L26.2257 36.7886C26.4441 36.9053 26.6682 37.0125 26.8992 37.1101C27.1246 37.2058 27.3581 37.29 27.5973 37.3652V39.2418C27.5973 39.6953 27.9589 40.0627 28.404 40.0627H31.5974C32.0437 40.0627 32.4041 39.6953 32.4041 39.2418V37.3652L32.4028 37.3678ZM32.4832 35.5996C32.1574 35.7368 31.824 35.8471 31.4863 35.9275C31.0914 35.9824 30.7882 36.3249 30.7882 36.7408V38.4247H29.2094V36.7408H29.2063C29.2063 36.3657 28.9508 36.027 28.5754 35.9434C28.2157 35.8618 27.8603 35.7463 27.5145 35.6003C27.1805 35.4599 26.8566 35.2884 26.5483 35.0925C26.2338 34.8706 25.7982 34.9018 25.5182 35.1869L24.3468 36.3772L23.23 35.2424L24.4014 34.0522C24.6632 33.7862 24.7178 33.3633 24.5125 33.0329C24.311 32.7114 24.1371 32.374 23.9946 32.0238C23.8596 31.6928 23.751 31.354 23.6719 31.0109C23.618 30.6097 23.2809 30.3016 22.8716 30.3016H21.2155V28.6974H22.8716V28.6942C23.2407 28.6942 23.574 28.4346 23.6575 28.0531C23.7379 27.6876 23.8515 27.3266 23.9952 26.9751C24.1333 26.6358 24.301 26.3079 24.4949 25.9948C24.7134 25.6752 24.6826 25.2325 24.402 24.948L23.2306 23.7578L24.3474 22.623L25.5188 23.8133C25.7806 24.0793 26.1968 24.1348 26.522 23.9262C26.8384 23.7214 27.1704 23.546 27.5151 23.3999C27.8409 23.2628 28.1742 23.1524 28.512 23.0721C28.9068 23.0172 29.21 22.6747 29.21 22.2588V20.5755H30.7888V22.2582H30.792C30.792 22.6332 31.0475 22.9719 31.4229 23.0568C31.7826 23.1384 32.1379 23.2539 32.4838 23.3999C32.8178 23.5403 33.1404 23.7106 33.4487 23.9077C33.7632 24.1296 34.1988 24.0984 34.4788 23.8133L35.6502 22.623L36.767 23.7578L35.5956 24.948C35.3338 25.214 35.2792 25.6369 35.4845 25.9673C35.686 26.2888 35.8586 26.6262 36.0024 26.9764C36.1373 27.3075 36.2459 27.6462 36.325 27.9893C36.379 28.3906 36.7161 28.6986 37.1254 28.6986H38.7821V30.3029H37.1261V30.306C36.7569 30.306 36.4236 30.5657 36.3401 30.9471C36.2598 31.3126 36.1461 31.6736 36.0024 32.0251C35.8643 32.3644 35.6967 32.6923 35.5027 33.0055C35.2842 33.325 35.315 33.7677 35.5956 34.0522L36.767 35.2424L35.6502 36.3772L34.4788 35.1869C34.217 34.921 33.8008 34.8655 33.4756 35.074C33.1593 35.2788 32.8278 35.4536 32.4832 35.5996Z" fill="#5133CD"/>
</g>
<defs>
<linearGradient id="paint0_linear_60_1541" x1="10.6717" y1="-5.20936" x2="70.4077" y2="45.5814" gradientUnits="userSpaceOnUse">
<stop offset="0.279814" stop-color="#8B57FF"/>
<stop offset="0.94" stop-color="#5445FF"/>
</linearGradient>
<clipPath id="clip0_60_1541">
<rect width="34" height="35" fill="white" transform="matrix(1 0 0 -1 13 47)"/>
</clipPath>
</defs>
</svg>
