<svg width="59" height="59" viewBox="0 0 59 59" fill="none" xmlns="http://www.w3.org/2000/svg">
<rect opacity="0.08" width="59" height="59" rx="12" fill="url(#paint0_linear_60_1517)"/>
<g clip-path="url(#clip0_60_1517)">
<path d="M46.7982 17.2051C46.0301 16.434 44.9885 16.0009 43.9019 16H15.0981C14.0115 16.0009 12.9699 16.434 12.2018 17.2051C11.4337 17.9763 11.0009 19.0198 11 20.1094V38.8906C11.0009 39.9802 11.4328 41.0247 12.2018 41.7949C12.9708 42.5651 14.0115 42.9991 15.0981 43H43.9019C44.9885 42.9991 46.0301 42.566 46.7982 41.7949C47.5663 41.0237 47.9991 39.9802 48 38.8906V20.1094C47.9991 19.0198 47.5672 17.9753 46.7982 17.2051ZM46.3598 29.5005V38.4491V38.8915C46.3598 39.5453 46.0994 40.1718 45.6386 40.6339C45.1777 41.0961 44.5529 41.3562 43.901 41.3572H15.0972C14.4452 41.3572 13.8204 41.0961 13.3596 40.6339C12.8987 40.1718 12.6392 39.5453 12.6383 38.8915V20.1094C12.6383 19.4557 12.8987 18.8292 13.3596 18.367C13.8204 17.9049 14.4452 17.6447 15.0972 17.6438H43.901C44.5529 17.6438 45.1777 17.9049 45.6386 18.367C46.0994 18.8292 46.3589 19.4557 46.3598 20.1094V20.5518V29.5005Z" fill="#5133CD"/>
<path d="M35.4559 37.9995V26.481C35.4559 26.194 35.4664 25.879 35.4874 25.536C35.5084 25.186 35.5679 24.8395 35.6659 24.4965C35.7639 24.1535 35.9424 23.842 36.2014 23.562C36.5234 23.205 36.8699 22.96 37.2409 22.827C37.6189 22.687 37.9899 22.61 38.3539 22.596C38.7179 22.575 39.0364 22.5645 39.3094 22.5645H40.7269V24.6225H39.4144C38.9314 24.6225 38.5709 24.745 38.3329 24.99C38.1019 25.228 37.9864 25.543 37.9864 25.935V37.9995H35.4559ZM33.6289 28.644V26.6595H40.7269V28.644H33.6289Z" fill="#807D76"/>
</g>
<defs>
<linearGradient id="paint0_linear_60_1517" x1="10.6717" y1="-5.20936" x2="70.4077" y2="45.5814" gradientUnits="userSpaceOnUse">
<stop offset="0.279814" stop-color="#8B57FF"/>
<stop offset="0.94" stop-color="#5445FF"/>
</linearGradient>
<clipPath id="clip0_60_1517">
<rect width="37" height="27" fill="white" transform="translate(11 16)"/>
</clipPath>
</defs>
</svg>
