<svg width="74" height="74" viewBox="0 0 74 74" fill="none" xmlns="http://www.w3.org/2000/svg">
<rect width="74" height="74" rx="19" fill="url(#paint0_linear_60_3171)" fill-opacity="0.1"/>
<path d="M58.3543 40.3944L55.602 36.6476C55.5074 36.5181 55.5074 36.3424 55.602 36.2129L58.3284 32.4458C58.9507 31.5848 59.1232 30.4757 58.7924 29.465C58.4607 28.4543 57.665 27.6656 56.6549 27.3444L52.2307 25.9402C52.0791 25.8914 51.9761 25.7501 51.9752 25.5904V20.9346C51.9752 19.8701 51.466 18.8703 50.6058 18.2481C49.7456 17.6258 48.6391 17.4568 47.634 17.7932L43.2367 19.2647C43.0851 19.3159 42.9184 19.2621 42.8237 19.1326L40.0974 15.3648C39.4801 14.5004 38.4842 13.9925 37.4263 14.0001H37.4137C36.3525 13.9976 35.3558 14.5138 34.7427 15.3841L32.0473 19.1722C31.9543 19.3025 31.7885 19.358 31.636 19.3084L27.2236 17.8705C26.2151 17.5418 25.1112 17.7192 24.256 18.3481C23.4008 18.9771 22.8991 19.9802 22.9075 21.0439L22.9427 25.6989C22.9443 25.8595 22.8413 26.0024 22.6889 26.052L18.2781 27.4899C17.2697 27.8186 16.4807 28.6149 16.1574 29.6282C15.834 30.6414 16.015 31.7488 16.6448 32.6056L19.3972 36.3524C19.4918 36.4819 19.4918 36.6577 19.3972 36.7872L16.6708 40.5542C16.0485 41.4152 15.8759 42.5243 16.2068 43.535C16.5385 44.5457 17.3342 45.3344 18.3443 45.6556L22.7659 47.0607C22.9175 47.1095 23.0206 47.2507 23.0214 47.4105V52.0663C23.0214 53.1308 23.5307 54.1306 24.3909 54.7528C25.2511 55.375 26.3567 55.5449 27.3626 55.2077L31.76 53.7362C31.9116 53.6849 32.0783 53.7387 32.1729 53.8682L34.8993 57.6361C35.5166 58.498 36.51 59.0058 37.567 58.9999H37.5796C38.6433 59.0033 39.6426 58.4862 40.2565 57.6142L42.9519 53.8279C43.044 53.6967 43.2107 53.6404 43.3631 53.69L47.7747 55.1287C48.7832 55.4574 49.8871 55.28 50.7423 54.6511C51.5975 54.0221 52.0992 53.019 52.0917 51.9553L52.0565 47.3003C52.0548 47.1397 52.1578 46.9968 52.3103 46.9472L56.7219 45.5085C57.7295 45.1797 58.5193 44.3834 58.8427 43.3702C59.166 42.357 58.985 41.2496 58.3552 40.3927L58.3543 40.3944ZM56.7478 42.6975C56.6415 43.0364 56.3776 43.3021 56.0409 43.4106L51.6293 44.8493C51.1109 45.0174 50.6586 45.347 50.3403 45.791C50.022 46.235 49.852 46.7689 49.857 47.3163L49.8922 51.9713C49.8955 52.3261 49.728 52.6608 49.4424 52.8701C49.1567 53.0795 48.789 53.1392 48.4532 53.0299L44.0424 51.5912C43.524 51.4213 42.9644 51.4222 42.4468 51.5937C41.9292 51.7653 41.4794 52.0991 41.1628 52.5456L38.4657 56.3328C38.2614 56.6229 37.9288 56.7952 37.5754 56.7936C37.2236 56.7961 36.8919 56.6262 36.6867 56.3387L33.9595 52.5716C33.4779 51.904 32.7065 51.5088 31.8856 51.5105C31.6084 51.5105 31.3328 51.5559 31.0698 51.6442L26.6725 53.1157C26.3374 53.2283 25.9681 53.1712 25.6816 52.9643C25.3943 52.7566 25.2251 52.4236 25.2251 52.068V47.4122C25.2268 46.8648 25.0534 46.3308 24.7318 45.8894C24.4093 45.4479 23.9545 45.1208 23.4343 44.9577L19.011 43.5527C18.6735 43.4459 18.4088 43.1827 18.2982 42.8455C18.1877 42.5083 18.2463 42.1383 18.454 41.8516L21.1795 38.0854C21.5012 37.644 21.6737 37.1101 21.672 36.5627C21.6704 36.0153 21.4936 35.483 21.1687 35.0432L18.4138 31.2972C18.2036 31.0122 18.1433 30.6422 18.2505 30.305C18.3585 29.967 18.6215 29.7013 18.9574 29.592L23.369 28.1541C23.8875 27.986 24.3398 27.6564 24.6589 27.2124C24.978 26.7684 25.1472 26.2345 25.1422 25.6871L25.107 21.0296C25.1037 20.6748 25.2712 20.3401 25.5568 20.1307C25.8416 19.9214 26.2101 19.8617 26.546 19.9718L30.9567 21.4097C31.4752 21.5795 32.0339 21.5787 32.5524 21.408C33.07 21.2365 33.5198 20.9035 33.8364 20.4578L36.5334 16.6715C36.7386 16.3805 37.072 16.2082 37.428 16.2107C37.7806 16.2082 38.1114 16.378 38.3167 16.6656L41.0438 20.4326C41.3638 20.8757 41.8153 21.2053 42.3346 21.3727C42.8539 21.54 43.4126 21.5358 43.9293 21.3617L48.3267 19.8903C48.6617 19.7776 49.0311 19.8339 49.3176 20.0416C49.6049 20.2493 49.7741 20.5831 49.7741 20.938V25.5921C49.7724 26.1395 49.9458 26.6734 50.2674 27.1148C50.5899 27.5563 51.0447 27.8834 51.5648 28.0465L55.9865 29.4507C56.3232 29.5584 56.5887 29.8216 56.6993 30.1587C56.8098 30.4959 56.7512 30.8659 56.5435 31.1526L53.8179 34.9188C53.4963 35.3602 53.3238 35.8942 53.3254 36.4416C53.3271 36.989 53.5038 37.5212 53.8288 37.961L56.5837 41.707C56.7964 41.9912 56.8576 42.3612 56.7487 42.6992L56.7478 42.6975Z" fill="#5133CD"/>
<path d="M44.6004 31.3427L41.9327 31.4309C42.2476 28.7528 41.2584 27.4209 40.5699 26.8323C40.1134 26.4354 39.5572 26.1706 38.9617 26.0671C38.3662 25.9637 37.7548 26.0243 37.1911 26.2437C36.8225 26.3892 36.5017 26.6356 36.2672 26.9559C36.0327 27.2763 35.8928 27.6572 35.8651 28.0532L35.8283 28.8848C35.7697 30.3412 35.7479 30.5548 35.4103 31.1291C35.0803 31.6882 33.9956 32.2323 32.9847 32.593C32.7845 32.4021 32.5198 32.297 32.2442 32.2987H27.4289C26.8217 32.2987 26.33 32.7931 26.33 33.4019V43.1877C26.33 43.7973 26.8225 44.2909 27.4289 44.2909H32.2442C32.5064 44.2909 32.7594 44.1934 32.9554 44.0185L34.9413 44.7542C36.1256 45.1965 37.3795 45.4236 38.6426 45.4236H44.4546C45.2512 45.4219 46.0209 45.1309 46.6215 44.6054C47.222 44.0799 47.6132 43.3534 47.7238 42.5613L48.6325 35.9396C48.7925 34.7742 48.4391 33.597 47.6651 32.7141C46.8912 31.8312 45.773 31.33 44.6012 31.341L44.6004 31.3427ZM46.4473 35.6394L45.546 42.2611C45.4698 42.8085 45.0049 43.2163 44.4538 43.2172H38.6418C37.6408 43.2188 36.6483 43.0397 35.7102 42.6874L33.3432 41.8045V34.8002C34.5309 34.4252 36.5093 33.6155 37.3083 32.2474C37.9315 31.1736 37.9608 30.4892 38.0261 28.9807L38.0554 28.2744C38.3628 28.1718 38.7004 28.2147 38.9718 28.3921C39.8144 28.8924 40.0271 30.3639 39.5363 32.3063C39.4534 32.6434 39.5321 33 39.7491 33.2699C39.9601 33.5482 40.2952 33.7029 40.6436 33.6819L44.6381 33.5499C45.1658 33.5457 45.67 33.7744 46.0159 34.1755C46.3652 34.5766 46.5226 35.1113 46.4473 35.6394Z" fill="#F8B200"/>
<defs>
<linearGradient id="paint0_linear_60_3171" x1="-7.5" y1="-32.5" x2="111.814" y2="64.5598" gradientUnits="userSpaceOnUse">
<stop stop-color="#FFC600"/>
<stop offset="0.94" stop-color="#5445FF"/>
</linearGradient>
</defs>
</svg>
