<svg width="74" height="74" viewBox="0 0 74 74" fill="none" xmlns="http://www.w3.org/2000/svg">
<rect width="74" height="74" rx="19" fill="url(#paint0_linear_110_12)" fill-opacity="0.1"/>
<g clip-path="url(#clip0_110_12)">
<path d="M43.6598 51.5266V54.277H17.3411V20.6082H43.6598V22.9318C44.0391 22.8844 44.4659 22.8844 44.8927 22.8844C45.3669 22.8844 45.8411 22.8844 46.3153 22.9792V19.8494C46.3153 18.8536 45.5092 18 44.4659 18H16.535C15.4917 18 14.6855 18.8536 14.6855 19.8494V55.0832C14.6855 56.079 15.4917 56.9326 16.535 56.9326H44.4185C45.4618 56.9326 46.2679 56.1265 46.2679 55.0832V51.5266C45.7937 51.5741 45.3195 51.6215 44.8453 51.6215C44.4659 51.5741 44.0391 51.5741 43.6598 51.5266Z" fill="#5133CD"/>
<path d="M36.3095 25.7771H23.6481C22.9368 25.7771 22.3203 26.3936 22.3203 27.1049C22.3203 27.8636 22.9368 28.4327 23.6481 28.4327H33.6065C34.3652 27.3894 35.2662 26.4884 36.3095 25.7771Z" fill="#5133CD"/>
<path d="M23.6481 35.3087H30.6664C30.7612 34.4077 30.9509 33.5067 31.2829 32.6531H23.6481C22.9368 32.6531 22.3203 33.2695 22.3203 33.9809C22.3203 34.7396 22.9368 35.3087 23.6481 35.3087Z" fill="#5133CD"/>
<path d="M23.6481 39.5767C22.9368 39.5767 22.3203 40.1457 22.3203 40.9044C22.3203 41.6158 22.9368 42.2322 23.6481 42.2322H31.4251C31.0932 41.4261 30.8561 40.5251 30.7138 39.5767H23.6481Z" fill="#5133CD"/>
<path d="M22.3203 47.8278C22.3203 48.5391 22.9368 49.1556 23.6481 49.1556H36.8786C35.7879 48.3968 34.792 47.5433 33.9385 46.5H23.6481C22.9368 46.5 22.3203 47.0691 22.3203 47.8278Z" fill="#5133CD"/>
<path d="M45.3195 36.2096H44.4185C44.134 36.2096 43.8495 36.0674 43.6598 35.8777C43.4701 35.6406 43.3753 35.4035 43.4227 35.0715C43.4701 34.5499 43.9443 34.1705 44.5134 34.1705H45.6041C45.8886 34.1705 46.1731 34.4076 46.2205 34.6922C46.268 34.8818 46.4576 35.0241 46.6473 35.0241H47.8803C48.0225 35.0241 48.1174 34.9767 48.2122 34.8818C48.3071 34.787 48.3071 34.6922 48.3071 34.5499C48.1648 33.2695 47.2164 32.3211 45.9834 32.1314V31.0882C45.9834 30.8511 45.7938 30.6614 45.5567 30.6614H44.3711C44.134 30.6614 43.9443 30.8511 43.9443 31.0882V32.1314C42.3794 32.416 41.2888 33.8386 41.4784 35.4509C41.6207 37.0158 43.0433 38.2013 44.6557 38.2013H45.4618C45.7463 38.2013 46.0309 38.3436 46.2205 38.5333C46.4102 38.7704 46.5051 39.0075 46.4577 39.3394C46.3154 39.9085 45.8412 40.2878 45.2721 40.2878H44.1814C43.8969 40.2878 43.6124 40.0507 43.565 39.7662C43.5176 39.5765 43.3279 39.4343 43.1382 39.4343H41.9527C41.8104 39.4343 41.7156 39.4817 41.6207 39.5765C41.5259 39.6714 41.4784 39.8136 41.4784 39.9085C41.6207 41.1888 42.5691 42.1373 43.8021 42.3269V43.3702C43.8021 43.6073 43.9918 43.797 44.2289 43.797H45.4144C45.6515 43.797 45.8412 43.6073 45.8412 43.3702V42.2795C47.169 41.995 48.2122 40.9043 48.3071 39.5765C48.4019 38.6755 48.1174 37.8694 47.5009 37.2055C47.0267 36.589 46.2205 36.2096 45.3195 36.2096Z" fill="#F8B200"/>
<path d="M59.3092 49.6771L54.1403 44.5082C55.7052 42.4691 56.6536 39.9558 56.6536 37.2528C56.6536 30.7562 51.3899 25.4924 44.8932 25.4924C38.3965 25.4924 33.1328 30.7562 33.1328 37.2528C33.1328 43.7495 38.3965 49.0132 44.8932 49.0132C47.6436 49.0132 50.1569 48.0648 52.1486 46.4999L57.3175 51.6688C57.602 51.9533 57.934 52.0956 58.3134 52.0956C58.6927 52.0956 59.0247 51.9533 59.3092 51.6688C59.8774 51.0998 59.8774 50.2462 59.3092 49.6771ZM35.9307 37.2528C35.9307 32.3211 39.9614 28.2903 44.8932 28.2903C49.825 28.2903 53.8558 32.3211 53.8558 37.2528C53.8558 42.1846 49.825 46.2154 44.8932 46.2154C39.9614 46.168 35.9307 42.1846 35.9307 37.2528Z" fill="#F8B200"/>
</g>
<defs>
<linearGradient id="paint0_linear_110_12" x1="-7.5" y1="-32.5" x2="111.814" y2="64.5598" gradientUnits="userSpaceOnUse">
<stop stop-color="#FFC600"/>
<stop offset="0.94" stop-color="#5445FF"/>
</linearGradient>
<clipPath id="clip0_110_12">
<rect width="45.0499" height="38.9326" fill="white" transform="translate(14.6855 18)"/>
</clipPath>
</defs>
</svg>
