<svg width="74" height="74" viewBox="0 0 74 74" fill="none" xmlns="http://www.w3.org/2000/svg">
<rect width="74" height="74" rx="19" fill="url(#paint0_linear_110_11)" fill-opacity="0.1"/>
<g clip-path="url(#clip0_110_11)">
<path d="M54.3022 39.8447C53.3245 38.5637 52.0766 37.4995 50.67 36.7276C52.252 35.0498 53.1752 32.708 53.1752 30.172C53.1752 25.2909 49.6957 21.3006 45.3602 21.1248C43.4703 18.0328 40.2988 16 36.7111 16C33.1234 16 29.9494 18.0337 28.0603 21.1281C23.7525 21.3383 20.3057 25.3143 20.3057 30.1728C20.3057 31.895 20.7405 33.5704 21.5621 35.018C21.933 35.6702 22.3736 36.2638 22.873 36.7854C21.4907 37.5632 20.2655 38.6248 19.3071 39.8949C17.7981 41.8942 17 44.2787 17 46.7887V51.633C17 52.3916 17.616 53.0069 18.3772 53.0069H21.7652V56.7519C21.7652 57.5105 22.3812 58.1258 23.1423 58.1258H50.5056C51.2659 58.1258 51.8827 57.5113 51.8827 56.7519V53.0069H55.2716C56.0319 53.0069 56.6487 52.3924 56.6487 51.633V46.7887C56.6487 44.2561 55.838 41.8549 54.3039 39.8455L54.3022 39.8447ZM21.7652 50.2047V50.2583H19.7535V46.7879C19.7535 42.9182 22.2452 39.5625 25.9538 38.4373C26.4859 38.2757 26.8685 37.811 26.9231 37.2593C26.9785 36.7075 26.6948 36.1767 26.2056 35.9138C24.2946 34.8882 23.0593 32.6343 23.0593 30.1728C23.0593 27.3915 24.5967 25.0271 26.7242 24.1907C26.4053 25.3152 26.2316 26.5116 26.2316 27.7524C26.2316 29.9962 26.7972 32.178 27.8664 34.0618C28.4522 35.0933 29.1731 36.0092 30.0014 36.7829C29.9989 36.7954 29.9955 36.8071 29.993 36.8197C27.9621 37.857 26.1636 39.354 24.7856 41.1801C22.8092 43.7989 21.7643 46.9193 21.7643 50.2055L21.7652 50.2047ZM49.1284 55.3772H24.5187V50.2047C24.5187 44.7618 28.0233 40.0414 33.2392 38.459C33.7712 38.2974 34.1531 37.8328 34.2085 37.281C34.2639 36.7293 33.9802 36.1985 33.4909 35.9356C30.7534 34.4662 28.9851 31.2546 28.9851 27.7524C28.9851 22.7867 32.4503 18.7478 36.7102 18.7478C40.9702 18.7478 44.4354 22.7875 44.4354 27.7524C44.4354 31.2185 42.6931 34.4168 39.9967 35.9004C39.5099 36.1683 39.2321 36.7025 39.2934 37.2542C39.3547 37.806 39.7424 38.2665 40.2761 38.4222C45.4886 39.9401 49.1284 44.7852 49.1284 50.2055V55.3772ZM53.8927 50.2591H51.8811V50.2055C51.8811 46.89 50.8194 43.747 48.8103 41.1156C47.4079 39.2787 45.5818 37.7825 43.5215 36.7561C43.5164 36.7376 43.5097 36.7201 43.5038 36.7025C44.3087 35.9339 45.0094 35.0297 45.5793 34.0158C46.6317 32.1437 47.1872 29.9778 47.1872 27.7532C47.1872 26.5032 47.0118 25.2976 46.6879 24.1665C48.8489 24.9794 50.4191 27.3639 50.4191 30.1737C50.4191 32.6109 49.2022 34.8547 47.3198 35.8912C46.8331 36.1591 46.5553 36.6933 46.6165 37.245C46.6778 37.7968 47.0655 38.2572 47.5993 38.413C51.3045 39.4922 53.8927 42.9366 53.8927 46.7896V50.2599V50.2591Z" fill="#5133CD"/>
<path d="M37.029 44.7643C35.5822 44.6731 34.9158 44.2603 34.9158 43.5269C34.9158 42.7934 35.651 42.4041 36.9828 42.4041C38.0621 42.4041 38.9811 42.6561 39.785 43.4122L41.3469 41.5794C40.3264 40.6861 39.2907 40.2817 38.0462 40.1469V38.6458H35.5981V40.2173C33.8626 40.5446 32.1598 41.5493 32.1598 43.6198C32.1598 46.186 34.7094 46.9646 36.8452 47.1253C38.4532 47.2166 39.096 47.5381 39.096 48.3167C39.096 49.1414 38.1083 49.6915 37.0517 49.6689C35.7886 49.6463 33.9507 48.9815 33.1476 48.0882L31.7695 50.0816C32.9898 51.3492 34.2839 51.8432 35.5981 52.0157V53.5428H38.0462V52.0324C40.5924 51.7025 41.8747 50.1528 41.8747 48.3862C41.8747 45.3839 39.1649 44.9025 37.029 44.7652V44.7643Z" fill="#F8B200"/>
</g>
<defs>
<linearGradient id="paint0_linear_110_11" x1="-7.5" y1="-32.5" x2="111.814" y2="64.5598" gradientUnits="userSpaceOnUse">
<stop stop-color="#FFC600"/>
<stop offset="0.94" stop-color="#5445FF"/>
</linearGradient>
<clipPath id="clip0_110_11">
<rect width="39.6471" height="42.125" fill="white" transform="translate(17 16)"/>
</clipPath>
</defs>
</svg>
