<svg width="398" height="118" viewBox="0 0 398 118" fill="none" xmlns="http://www.w3.org/2000/svg">
<g filter="url(#filter0_d_197_410)">
<g filter="url(#filter1_b_197_410)">
<rect x="4" width="390" height="110" rx="20" fill="white" fill-opacity="0.8"/>
</g>
<path d="M102.009 45H104.973L107.69 34.816L110.407 45H113.371L117.171 30.845H114.397L111.775 41.485L109.039 30.845H106.36L103.605 41.485L100.983 30.845H98.209L102.009 45ZM117.199 45H119.992L121.018 41.96H126.49L127.497 45H130.309L125.426 30.845H122.082L117.199 45ZM121.759 39.68L123.754 33.714L125.749 39.68H121.759ZM132.265 45H134.849V30.845H132.265V45ZM140.459 45H143.062V33.125H146.672V30.845H136.792V33.125H140.459V45ZM149.693 40.706H151.878L152.049 30.845H149.522L149.693 40.706ZM149.522 45H152.049V42.34H149.522V45ZM165.27 45.228C166.359 45.228 167.322 45 168.158 44.544C169.007 44.088 169.672 43.461 170.153 42.663C170.634 41.865 170.875 40.9593 170.875 39.946V30.845H168.291V39.813C168.291 40.4083 168.158 40.9403 167.892 41.409C167.639 41.865 167.284 42.226 166.828 42.492C166.385 42.7453 165.865 42.872 165.27 42.872C164.687 42.872 164.168 42.7453 163.712 42.492C163.256 42.226 162.895 41.865 162.629 41.409C162.376 40.9403 162.249 40.4083 162.249 39.813V30.845H159.665V39.946C159.665 40.9593 159.906 41.865 160.387 42.663C160.868 43.461 161.527 44.088 162.363 44.544C163.212 45 164.181 45.228 165.27 45.228ZM173.626 48.8H176.115V44.012C176.495 44.4047 176.957 44.7087 177.502 44.924C178.046 45.1267 178.635 45.228 179.269 45.228C180.269 45.228 181.162 44.9937 181.948 44.525C182.733 44.0437 183.354 43.3977 183.81 42.587C184.266 41.7637 184.494 40.8453 184.494 39.832C184.494 38.8187 184.266 37.9067 183.81 37.096C183.354 36.2727 182.733 35.6267 181.948 35.158C181.162 34.6767 180.276 34.436 179.288 34.436C178.578 34.436 177.939 34.5627 177.369 34.816C176.799 35.0693 176.33 35.424 175.963 35.88V34.664H173.626V48.8ZM178.984 42.948C178.439 42.948 177.945 42.815 177.502 42.549C177.071 42.283 176.729 41.9157 176.476 41.447C176.235 40.9783 176.115 40.44 176.115 39.832C176.115 39.224 176.235 38.6857 176.476 38.217C176.729 37.7483 177.071 37.381 177.502 37.115C177.945 36.849 178.439 36.716 178.984 36.716C179.554 36.716 180.054 36.8553 180.485 37.134C180.928 37.4 181.276 37.7673 181.53 38.236C181.783 38.7047 181.91 39.2367 181.91 39.832C181.91 40.4273 181.783 40.9657 181.53 41.447C181.276 41.9157 180.928 42.283 180.485 42.549C180.054 42.815 179.554 42.948 178.984 42.948ZM191.787 49.18C192.775 49.18 193.649 48.9773 194.409 48.572C195.169 48.1667 195.765 47.6093 196.195 46.9C196.626 46.1907 196.841 45.3863 196.841 44.487V34.664H194.485V35.861C193.7 34.911 192.642 34.436 191.312 34.436C190.362 34.436 189.514 34.6577 188.766 35.101C188.019 35.5317 187.43 36.127 186.999 36.887C186.569 37.647 186.353 38.5147 186.353 39.49C186.353 40.4527 186.569 41.3203 186.999 42.093C187.43 42.8657 188.025 43.4737 188.785 43.917C189.545 44.3603 190.407 44.582 191.369 44.582C192.623 44.582 193.618 44.1767 194.352 43.366V44.487C194.352 45.247 194.112 45.836 193.63 46.254C193.149 46.6847 192.535 46.9 191.787 46.9C191.129 46.9 190.571 46.748 190.115 46.444C189.672 46.1527 189.374 45.7663 189.222 45.285L186.904 46.159C187.234 47.071 187.835 47.7993 188.709 48.344C189.596 48.9013 190.622 49.18 191.787 49.18ZM191.673 42.283C190.875 42.283 190.217 42.0233 189.697 41.504C189.191 40.972 188.937 40.307 188.937 39.509C188.937 38.977 189.051 38.502 189.279 38.084C189.52 37.6533 189.849 37.3177 190.267 37.077C190.685 36.8363 191.154 36.716 191.673 36.716C192.459 36.716 193.098 36.982 193.592 37.514C194.099 38.0333 194.352 38.6983 194.352 39.509C194.352 40.3197 194.099 40.9847 193.592 41.504C193.098 42.0233 192.459 42.283 191.673 42.283ZM199.546 45H202.035V39.243C202.035 38.4577 202.25 37.8497 202.681 37.419C203.124 36.9757 203.694 36.754 204.391 36.754H205.284V34.55H204.676C204.042 34.55 203.485 34.664 203.004 34.892C202.522 35.12 202.149 35.5317 201.883 36.127V34.664H199.546V45ZM210.167 45.228C211.51 45.228 212.587 44.7847 213.397 43.898V45H215.753V38.122C215.753 37.4 215.57 36.7603 215.202 36.203C214.835 35.6457 214.328 35.215 213.682 34.911C213.049 34.5943 212.308 34.436 211.459 34.436C210.421 34.436 209.496 34.683 208.685 35.177C207.875 35.671 207.317 36.3233 207.013 37.134L209.046 38.122C209.236 37.6533 209.534 37.2797 209.939 37.001C210.345 36.7097 210.82 36.564 211.364 36.564C211.934 36.564 212.39 36.716 212.732 37.02C213.087 37.3113 213.264 37.6787 213.264 38.122V38.464L210.186 38.958C208.97 39.1607 208.071 39.547 207.488 40.117C206.906 40.687 206.614 41.4027 206.614 42.264C206.614 43.176 206.937 43.898 207.583 44.43C208.229 44.962 209.091 45.228 210.167 45.228ZM209.198 42.169C209.198 41.447 209.686 40.991 210.661 40.801L213.264 40.364V40.782C213.264 41.4913 213.017 42.093 212.523 42.587C212.042 43.081 211.409 43.328 210.623 43.328C210.205 43.328 209.863 43.2267 209.597 43.024C209.331 42.8087 209.198 42.5237 209.198 42.169ZM223.241 45.228C223.912 45.228 224.533 45.114 225.103 44.886C225.673 44.6453 226.148 44.3033 226.528 43.86V45H228.884V30.617H226.395V35.709C225.622 34.8603 224.564 34.436 223.222 34.436C222.246 34.436 221.36 34.6767 220.562 35.158C219.776 35.6267 219.156 36.2727 218.7 37.096C218.244 37.9067 218.016 38.8187 218.016 39.832C218.016 40.8453 218.244 41.7637 218.7 42.587C219.156 43.3977 219.776 44.0437 220.562 44.525C221.347 44.9937 222.24 45.228 223.241 45.228ZM223.507 42.948C222.949 42.948 222.449 42.815 222.006 42.549C221.562 42.283 221.214 41.9157 220.961 41.447C220.72 40.9657 220.6 40.4273 220.6 39.832C220.6 39.2367 220.72 38.7047 220.961 38.236C221.214 37.7673 221.562 37.4 222.006 37.134C222.449 36.8553 222.949 36.716 223.507 36.716C224.064 36.716 224.558 36.849 224.989 37.115C225.432 37.381 225.774 37.7483 226.015 38.217C226.268 38.6857 226.395 39.224 226.395 39.832C226.395 40.44 226.268 40.9783 226.015 41.447C225.774 41.9157 225.432 42.283 224.989 42.549C224.558 42.815 224.064 42.948 223.507 42.948ZM236.481 45.228C237.533 45.228 238.451 44.9937 239.236 44.525C240.034 44.0437 240.592 43.4357 240.908 42.701L238.894 41.713C238.666 42.1057 238.35 42.4287 237.944 42.682C237.552 42.9227 237.07 43.043 236.5 43.043C235.753 43.043 235.126 42.815 234.619 42.359C234.113 41.903 233.821 41.295 233.745 40.535H241.193C241.244 40.3957 241.276 40.2373 241.288 40.06C241.314 39.87 241.326 39.68 241.326 39.49C241.326 38.5653 241.13 37.723 240.737 36.963C240.345 36.203 239.775 35.595 239.027 35.139C238.28 34.6703 237.368 34.436 236.291 34.436C235.329 34.436 234.455 34.6703 233.669 35.139C232.897 35.6077 232.282 36.2473 231.826 37.058C231.383 37.856 231.161 38.7743 231.161 39.813C231.161 40.8137 231.383 41.7257 231.826 42.549C232.27 43.3723 232.89 44.0247 233.688 44.506C234.486 44.9873 235.417 45.228 236.481 45.228ZM236.291 36.488C236.95 36.488 237.495 36.6907 237.925 37.096C238.369 37.4887 238.616 38.0017 238.666 38.635H233.802C233.942 37.951 234.233 37.4253 234.676 37.058C235.132 36.678 235.671 36.488 236.291 36.488ZM247.559 45H256.204V42.72H250.143V30.845H247.559V45ZM262.948 45.228C264 45.228 264.918 44.9937 265.703 44.525C266.501 44.0437 267.059 43.4357 267.375 42.701L265.361 41.713C265.133 42.1057 264.817 42.4287 264.411 42.682C264.019 42.9227 263.537 43.043 262.967 43.043C262.22 43.043 261.593 42.815 261.086 42.359C260.58 41.903 260.288 41.295 260.212 40.535H267.66C267.711 40.3957 267.743 40.2373 267.755 40.06C267.781 39.87 267.793 39.68 267.793 39.49C267.793 38.5653 267.597 37.723 267.204 36.963C266.812 36.203 266.242 35.595 265.494 35.139C264.747 34.6703 263.835 34.436 262.758 34.436C261.796 34.436 260.922 34.6703 260.136 35.139C259.364 35.6077 258.749 36.2473 258.293 37.058C257.85 37.856 257.628 38.7743 257.628 39.813C257.628 40.8137 257.85 41.7257 258.293 42.549C258.737 43.3723 259.357 44.0247 260.155 44.506C260.953 44.9873 261.884 45.228 262.948 45.228ZM262.758 36.488C263.417 36.488 263.962 36.6907 264.392 37.096C264.836 37.4887 265.083 38.0017 265.133 38.635H260.269C260.409 37.951 260.7 37.4253 261.143 37.058C261.599 36.678 262.138 36.488 262.758 36.488ZM273.14 45.228C274.482 45.228 275.559 44.7847 276.37 43.898V45H278.726V38.122C278.726 37.4 278.542 36.7603 278.175 36.203C277.807 35.6457 277.301 35.215 276.655 34.911C276.021 34.5943 275.28 34.436 274.432 34.436C273.393 34.436 272.468 34.683 271.658 35.177C270.847 35.671 270.29 36.3233 269.986 37.134L272.019 38.122C272.209 37.6533 272.506 37.2797 272.912 37.001C273.317 36.7097 273.792 36.564 274.337 36.564C274.907 36.564 275.363 36.716 275.705 37.02C276.059 37.3113 276.237 37.6787 276.237 38.122V38.464L273.159 38.958C271.943 39.1607 271.043 39.547 270.461 40.117C269.878 40.687 269.587 41.4027 269.587 42.264C269.587 43.176 269.91 43.898 270.556 44.43C271.202 44.962 272.063 45.228 273.14 45.228ZM272.171 42.169C272.171 41.447 272.658 40.991 273.634 40.801L276.237 40.364V40.782C276.237 41.4913 275.99 42.093 275.496 42.587C275.014 43.081 274.381 43.328 273.596 43.328C273.178 43.328 272.836 43.2267 272.57 43.024C272.304 42.8087 272.171 42.5237 272.171 42.169ZM286.213 45.228C286.884 45.228 287.505 45.114 288.075 44.886C288.645 44.6453 289.12 44.3033 289.5 43.86V45H291.856V30.617H289.367V35.709C288.594 34.8603 287.537 34.436 286.194 34.436C285.219 34.436 284.332 34.6767 283.534 35.158C282.749 35.6267 282.128 36.2727 281.672 37.096C281.216 37.9067 280.988 38.8187 280.988 39.832C280.988 40.8453 281.216 41.7637 281.672 42.587C282.128 43.3977 282.749 44.0437 283.534 44.525C284.319 44.9937 285.212 45.228 286.213 45.228ZM286.479 42.948C285.922 42.948 285.421 42.815 284.978 42.549C284.535 42.283 284.186 41.9157 283.933 41.447C283.692 40.9657 283.572 40.4273 283.572 39.832C283.572 39.2367 283.692 38.7047 283.933 38.236C284.186 37.7673 284.535 37.4 284.978 37.134C285.421 36.8553 285.922 36.716 286.479 36.716C287.036 36.716 287.53 36.849 287.961 37.115C288.404 37.381 288.746 37.7483 288.987 38.217C289.24 38.6857 289.367 39.224 289.367 39.832C289.367 40.44 289.24 40.9783 288.987 41.447C288.746 41.9157 288.404 42.283 287.961 42.549C287.53 42.815 287.036 42.948 286.479 42.948ZM298.485 45.228C299.27 45.228 299.954 45.095 300.537 44.829C301.119 44.563 301.575 44.1957 301.905 43.727C302.234 43.2457 302.399 42.6947 302.399 42.074C302.399 41.352 302.171 40.7313 301.715 40.212C301.259 39.6927 300.6 39.3127 299.739 39.072L298.086 38.578C297.731 38.4767 297.44 38.3437 297.212 38.179C296.984 38.0143 296.87 37.7863 296.87 37.495C296.87 37.191 296.99 36.944 297.231 36.754C297.471 36.564 297.801 36.469 298.219 36.469C298.738 36.469 299.207 36.6083 299.625 36.887C300.055 37.1657 300.353 37.5393 300.518 38.008L302.418 37.115C302.101 36.279 301.569 35.6267 300.822 35.158C300.074 34.6767 299.213 34.436 298.238 34.436C297.49 34.436 296.825 34.569 296.243 34.835C295.673 35.101 295.223 35.4747 294.894 35.956C294.577 36.4247 294.419 36.9757 294.419 37.609C294.419 38.3183 294.64 38.9327 295.084 39.452C295.54 39.9713 296.205 40.3577 297.079 40.611L298.77 41.086C299.099 41.1747 299.378 41.3077 299.606 41.485C299.846 41.6497 299.967 41.8777 299.967 42.169C299.967 42.511 299.827 42.7833 299.549 42.986C299.283 43.176 298.928 43.271 298.485 43.271C297.902 43.271 297.376 43.1063 296.908 42.777C296.439 42.4477 296.065 41.9917 295.787 41.409L293.925 42.302C294.229 43.1887 294.786 43.898 295.597 44.43C296.42 44.962 297.383 45.228 298.485 45.228ZM311.608 45.228C312.444 45.228 313.254 45.0887 314.04 44.81C314.825 44.5187 315.528 44.0943 316.149 43.537C316.782 42.967 317.282 42.2703 317.65 41.447C318.017 40.611 318.201 39.642 318.201 38.54V37.115H311.551V39.3H315.617V39.357C315.617 40.079 315.433 40.706 315.066 41.238C314.698 41.7573 314.211 42.1627 313.603 42.454C312.995 42.7327 312.33 42.872 311.608 42.872C310.721 42.872 309.936 42.663 309.252 42.245C308.568 41.827 308.029 41.2507 307.637 40.516C307.257 39.7687 307.067 38.901 307.067 37.913C307.067 36.925 307.257 36.0637 307.637 35.329C308.017 34.5817 308.542 34.0053 309.214 33.6C309.885 33.182 310.664 32.973 311.551 32.973C312.45 32.973 313.216 33.201 313.85 33.657C314.483 34.113 314.939 34.7083 315.218 35.443L317.517 34.341C317.276 33.6697 316.877 33.0553 316.32 32.498C315.762 31.928 315.078 31.472 314.268 31.13C313.47 30.788 312.564 30.617 311.551 30.617C310.537 30.617 309.6 30.8007 308.739 31.168C307.877 31.5227 307.13 32.0293 306.497 32.688C305.863 33.334 305.369 34.1067 305.015 35.006C304.66 35.8927 304.483 36.8617 304.483 37.913C304.483 38.9643 304.66 39.9397 305.015 40.839C305.382 41.7257 305.889 42.4983 306.535 43.157C307.181 43.8157 307.934 44.3287 308.796 44.696C309.657 45.0507 310.594 45.228 311.608 45.228ZM325.47 45.228C326.471 45.228 327.383 45 328.206 44.544C329.03 44.0753 329.688 43.4357 330.182 42.625C330.676 41.8017 330.923 40.8707 330.923 39.832C330.923 38.7933 330.676 37.8687 330.182 37.058C329.701 36.2473 329.049 35.6077 328.225 35.139C327.402 34.6703 326.484 34.436 325.47 34.436C324.444 34.436 323.52 34.6703 322.696 35.139C321.873 35.6077 321.214 36.2473 320.72 37.058C320.239 37.8687 319.998 38.7933 319.998 39.832C319.998 40.8707 320.239 41.7953 320.72 42.606C321.214 43.4167 321.873 44.0563 322.696 44.525C323.532 44.9937 324.457 45.228 325.47 45.228ZM325.47 42.948C324.913 42.948 324.413 42.815 323.969 42.549C323.539 42.283 323.197 41.9157 322.943 41.447C322.703 40.9657 322.582 40.4273 322.582 39.832C322.582 39.2367 322.703 38.7047 322.943 38.236C323.197 37.7673 323.539 37.4 323.969 37.134C324.413 36.8553 324.913 36.716 325.47 36.716C326.028 36.716 326.515 36.8553 326.933 37.134C327.364 37.4 327.7 37.7673 327.94 38.236C328.194 38.7047 328.32 39.2367 328.32 39.832C328.32 40.4273 328.194 40.9657 327.94 41.447C327.7 41.9157 327.364 42.283 326.933 42.549C326.515 42.815 326.028 42.948 325.47 42.948ZM333.191 45H335.68V39.243C335.68 38.4577 335.895 37.8497 336.326 37.419C336.769 36.9757 337.339 36.754 338.036 36.754H338.929V34.55H338.321C337.687 34.55 337.13 34.664 336.649 34.892C336.167 35.12 335.794 35.5317 335.528 36.127V34.664H333.191V45ZM340.677 33.505H343.166V30.845H340.677V33.505ZM340.677 45H343.166V34.664H340.677V45ZM345.844 45H348.333V30.617H345.844V45ZM351.011 45H353.5V30.617H351.011V45ZM359.314 45.228C360.656 45.228 361.733 44.7847 362.544 43.898V45H364.9V38.122C364.9 37.4 364.716 36.7603 364.349 36.203C363.981 35.6457 363.475 35.215 362.829 34.911C362.195 34.5943 361.454 34.436 360.606 34.436C359.567 34.436 358.642 34.683 357.832 35.177C357.021 35.671 356.464 36.3233 356.16 37.134L358.193 38.122C358.383 37.6533 358.68 37.2797 359.086 37.001C359.491 36.7097 359.966 36.564 360.511 36.564C361.081 36.564 361.537 36.716 361.879 37.02C362.233 37.3113 362.411 37.6787 362.411 38.122V38.464L359.333 38.958C358.117 39.1607 357.217 39.547 356.635 40.117C356.052 40.687 355.761 41.4027 355.761 42.264C355.761 43.176 356.084 43.898 356.73 44.43C357.376 44.962 358.237 45.228 359.314 45.228ZM358.345 42.169C358.345 41.447 358.832 40.991 359.808 40.801L362.411 40.364V40.782C362.411 41.4913 362.164 42.093 361.67 42.587C361.188 43.081 360.555 43.328 359.77 43.328C359.352 43.328 359.01 43.2267 358.744 43.024C358.478 42.8087 358.345 42.5237 358.345 42.169ZM101.876 79H104.479V67.125H108.089V64.845H98.209V67.125H101.876V79ZM113.555 79.228C114.556 79.228 115.468 79 116.291 78.544C117.114 78.0753 117.773 77.4357 118.267 76.625C118.761 75.8017 119.008 74.8707 119.008 73.832C119.008 72.7933 118.761 71.8687 118.267 71.058C117.786 70.2473 117.133 69.6077 116.31 69.139C115.487 68.6703 114.568 68.436 113.555 68.436C112.529 68.436 111.604 68.6703 110.781 69.139C109.958 69.6077 109.299 70.2473 108.805 71.058C108.324 71.8687 108.083 72.7933 108.083 73.832C108.083 74.8707 108.324 75.7953 108.805 76.606C109.299 77.4167 109.958 78.0563 110.781 78.525C111.617 78.9937 112.542 79.228 113.555 79.228ZM113.555 76.948C112.998 76.948 112.497 76.815 112.054 76.549C111.623 76.283 111.281 75.9157 111.028 75.447C110.787 74.9657 110.667 74.4273 110.667 73.832C110.667 73.2367 110.787 72.7047 111.028 72.236C111.281 71.7673 111.623 71.4 112.054 71.134C112.497 70.8553 112.998 70.716 113.555 70.716C114.112 70.716 114.6 70.8553 115.018 71.134C115.449 71.4 115.784 71.7673 116.025 72.236C116.278 72.7047 116.405 73.2367 116.405 73.832C116.405 74.4273 116.278 74.9657 116.025 75.447C115.784 75.9157 115.449 76.283 115.018 76.549C114.6 76.815 114.112 76.948 113.555 76.948ZM125.241 79H127.825V73.775H130.523C131.486 73.775 132.335 73.604 133.069 73.262C133.804 72.9073 134.38 72.3943 134.798 71.723C135.229 71.0517 135.444 70.2473 135.444 69.31C135.444 68.3473 135.235 67.5367 134.817 66.878C134.399 66.2193 133.817 65.719 133.069 65.377C132.335 65.0223 131.486 64.845 130.523 64.845H125.241V79ZM127.825 71.495V67.125H130.561C131.258 67.125 131.815 67.3213 132.233 67.714C132.651 68.1067 132.86 68.6387 132.86 69.31C132.86 69.9687 132.651 70.5007 132.233 70.906C131.815 71.2987 131.258 71.495 130.561 71.495H127.825ZM137.942 79H140.526V73.775H142.958L145.884 79H148.81L145.561 73.319C146.346 72.9897 146.967 72.483 147.423 71.799C147.891 71.115 148.126 70.2853 148.126 69.31C148.126 68.3473 147.917 67.5367 147.499 66.878C147.081 66.2193 146.498 65.719 145.751 65.377C145.016 65.0223 144.167 64.845 143.205 64.845H137.942V79ZM140.526 71.495V67.125H143.243C143.939 67.125 144.497 67.3213 144.915 67.714C145.333 68.1067 145.542 68.6387 145.542 69.31C145.542 69.9687 145.333 70.5007 144.915 70.906C144.497 71.2987 143.939 71.495 143.243 71.495H140.526ZM157.856 79.228C158.908 79.228 159.883 79.0443 160.782 78.677C161.682 78.3097 162.467 77.7967 163.138 77.138C163.81 76.4793 164.329 75.7067 164.696 74.82C165.076 73.9207 165.266 72.9517 165.266 71.913C165.266 70.8617 165.076 69.8927 164.696 69.006C164.329 68.1193 163.81 67.353 163.138 66.707C162.467 66.0483 161.682 65.5353 160.782 65.168C159.883 64.8007 158.908 64.617 157.856 64.617C156.805 64.617 155.83 64.8007 154.93 65.168C154.031 65.5353 153.246 66.0483 152.574 66.707C151.916 67.353 151.396 68.1193 151.016 69.006C150.649 69.8927 150.465 70.8617 150.465 71.913C150.465 72.9517 150.649 73.9207 151.016 74.82C151.396 75.7067 151.922 76.4793 152.593 77.138C153.265 77.7967 154.05 78.3097 154.949 78.677C155.849 79.0443 156.818 79.228 157.856 79.228ZM157.856 76.872C156.944 76.872 156.121 76.6567 155.386 76.226C154.664 75.7953 154.094 75.2063 153.676 74.459C153.258 73.7117 153.049 72.863 153.049 71.913C153.049 70.963 153.258 70.1207 153.676 69.386C154.094 68.6387 154.664 68.0497 155.386 67.619C156.121 67.1883 156.944 66.973 157.856 66.973C158.781 66.973 159.604 67.1883 160.326 67.619C161.048 68.0497 161.618 68.6387 162.036 69.386C162.454 70.1207 162.663 70.963 162.663 71.913C162.663 72.863 162.454 73.7117 162.036 74.459C161.618 75.2063 161.048 75.7953 160.326 76.226C159.604 76.6567 158.781 76.872 157.856 76.872ZM171.701 79H181.106V76.72H174.285V73.034H180.726V70.754H174.285V67.125H181.106V64.845H171.701V79ZM187.979 79.228C188.65 79.228 189.271 79.114 189.841 78.886C190.411 78.6453 190.886 78.3033 191.266 77.86V79H193.622V64.617H191.133V69.709C190.36 68.8603 189.302 68.436 187.96 68.436C186.984 68.436 186.098 68.6767 185.3 69.158C184.514 69.6267 183.894 70.2727 183.438 71.096C182.982 71.9067 182.754 72.8187 182.754 73.832C182.754 74.8453 182.982 75.7637 183.438 76.587C183.894 77.3977 184.514 78.0437 185.3 78.525C186.085 78.9937 186.978 79.228 187.979 79.228ZM188.245 76.948C187.687 76.948 187.187 76.815 186.744 76.549C186.3 76.283 185.952 75.9157 185.699 75.447C185.458 74.9657 185.338 74.4273 185.338 73.832C185.338 73.2367 185.458 72.7047 185.699 72.236C185.952 71.7673 186.3 71.4 186.744 71.134C187.187 70.8553 187.687 70.716 188.245 70.716C188.802 70.716 189.296 70.849 189.727 71.115C190.17 71.381 190.512 71.7483 190.753 72.217C191.006 72.6857 191.133 73.224 191.133 73.832C191.133 74.44 191.006 74.9783 190.753 75.447C190.512 75.9157 190.17 76.283 189.727 76.549C189.296 76.815 188.802 76.948 188.245 76.948ZM196.317 67.505H198.806V64.845H196.317V67.505ZM196.317 79H198.806V68.664H196.317V79ZM206.196 79.114C206.386 79.114 206.595 79.1013 206.823 79.076C207.051 79.0507 207.254 79.0253 207.431 79V76.872C207.191 76.91 206.969 76.929 206.766 76.929C206.158 76.929 205.715 76.7897 205.436 76.511C205.158 76.2323 205.018 75.8333 205.018 75.314V70.887H207.393V68.664H205.018V66.308H202.529V67.106C202.529 67.6127 202.39 67.999 202.111 68.265C201.833 68.531 201.44 68.664 200.933 68.664H200.743V70.887H202.529V75.447C202.529 76.5997 202.846 77.499 203.479 78.145C204.125 78.791 205.031 79.114 206.196 79.114ZM209.713 67.505H212.202V64.845H209.713V67.505ZM209.713 79H212.202V68.664H209.713V79ZM219.934 79.228C220.935 79.228 221.847 79 222.67 78.544C223.493 78.0753 224.152 77.4357 224.646 76.625C225.14 75.8017 225.387 74.8707 225.387 73.832C225.387 72.7933 225.14 71.8687 224.646 71.058C224.165 70.2473 223.512 69.6077 222.689 69.139C221.866 68.6703 220.947 68.436 219.934 68.436C218.908 68.436 217.983 68.6703 217.16 69.139C216.337 69.6077 215.678 70.2473 215.184 71.058C214.703 71.8687 214.462 72.7933 214.462 73.832C214.462 74.8707 214.703 75.7953 215.184 76.606C215.678 77.4167 216.337 78.0563 217.16 78.525C217.996 78.9937 218.921 79.228 219.934 79.228ZM219.934 76.948C219.377 76.948 218.876 76.815 218.433 76.549C218.002 76.283 217.66 75.9157 217.407 75.447C217.166 74.9657 217.046 74.4273 217.046 73.832C217.046 73.2367 217.166 72.7047 217.407 72.236C217.66 71.7673 218.002 71.4 218.433 71.134C218.876 70.8553 219.377 70.716 219.934 70.716C220.491 70.716 220.979 70.8553 221.397 71.134C221.828 71.4 222.163 71.7673 222.404 72.236C222.657 72.7047 222.784 73.2367 222.784 73.832C222.784 74.4273 222.657 74.9657 222.404 75.447C222.163 75.9157 221.828 76.283 221.397 76.549C220.979 76.815 220.491 76.948 219.934 76.948ZM227.655 79H230.144V72.939C230.144 72.2677 230.334 71.7293 230.714 71.324C231.106 70.9187 231.613 70.716 232.234 70.716C232.854 70.716 233.355 70.9187 233.735 71.324C234.127 71.7167 234.324 72.255 234.324 72.939V79H236.813V72.35C236.813 71.5773 236.648 70.8997 236.319 70.317C235.989 69.7217 235.527 69.2593 234.932 68.93C234.349 68.6007 233.678 68.436 232.918 68.436C232.272 68.436 231.689 68.5627 231.17 68.816C230.663 69.0693 230.27 69.443 229.992 69.937V68.664H227.655V79Z" fill="#595959"/>
<rect x="30" y="30" width="50" height="50" rx="8" fill="url(#paint0_linear_197_410)"/>
<g clip-path="url(#clip0_197_410)">
<path d="M68.4665 61.4377L58.2418 44.7778C57.5641 43.6595 56.356 43 55.0001 43C53.6441 43 52.4365 43.6595 51.7588 44.7778L41.5341 61.4377C40.8269 62.5846 40.8269 63.961 41.5047 65.1367C42.1824 66.3123 43.4199 67.0005 44.7754 67.0005H65.2247C66.6096 67.0005 67.8177 66.3123 68.4955 65.1367C69.1732 63.961 69.1732 62.5846 68.466 61.4377H68.4665ZM55.0006 63.1008C54.1166 63.1008 53.4094 62.4126 53.4094 61.5524C53.4094 60.6921 54.1166 60.0039 55.0006 60.0039C55.8846 60.0039 56.5917 60.6921 56.5917 61.5524C56.5917 62.4126 55.8846 63.1008 55.0006 63.1008ZM56.7096 51.3156L56.1498 57.71C56.0908 58.3122 55.531 58.7709 54.9122 58.7136C54.3523 58.6562 53.9103 58.2261 53.8809 57.71L53.321 51.3156C53.2326 50.398 53.9398 49.5951 54.8827 49.5091C55.8256 49.4231 56.6507 50.1113 56.7391 51.0288C56.7096 51.1149 56.7096 51.2296 56.7096 51.3156Z" fill="white"/>
</g>
</g>
<defs>
<filter id="filter0_d_197_410" x="0" y="0" width="398" height="118" filterUnits="userSpaceOnUse" color-interpolation-filters="sRGB">
<feFlood flood-opacity="0" result="BackgroundImageFix"/>
<feColorMatrix in="SourceAlpha" type="matrix" values="0 0 0 0 0 0 0 0 0 0 0 0 0 0 0 0 0 0 127 0" result="hardAlpha"/>
<feOffset dy="4"/>
<feGaussianBlur stdDeviation="2"/>
<feComposite in2="hardAlpha" operator="out"/>
<feColorMatrix type="matrix" values="0 0 0 0 0 0 0 0 0 0 0 0 0 0 0 0 0 0 0.25 0"/>
<feBlend mode="normal" in2="BackgroundImageFix" result="effect1_dropShadow_197_410"/>
<feBlend mode="normal" in="SourceGraphic" in2="effect1_dropShadow_197_410" result="shape"/>
</filter>
<filter id="filter1_b_197_410" x="-16" y="-20" width="430" height="150" filterUnits="userSpaceOnUse" color-interpolation-filters="sRGB">
<feFlood flood-opacity="0" result="BackgroundImageFix"/>
<feGaussianBlur in="BackgroundImageFix" stdDeviation="10"/>
<feComposite in2="SourceAlpha" operator="in" result="effect1_backgroundBlur_197_410"/>
<feBlend mode="normal" in="SourceGraphic" in2="effect1_backgroundBlur_197_410" result="shape"/>
</filter>
<linearGradient id="paint0_linear_197_410" x1="39.0438" y1="25.5853" x2="89.6675" y2="68.6283" gradientUnits="userSpaceOnUse">
<stop offset="0.39" stop-color="#7638FF"/>
<stop offset="0.94" stop-color="#5445FF"/>
</linearGradient>
<clipPath id="clip0_197_410">
<rect width="28" height="24" fill="white" transform="translate(41 43)"/>
</clipPath>
</defs>
</svg>
