<svg width="23" height="23" viewBox="0 0 23 23" fill="none" xmlns="http://www.w3.org/2000/svg">
<path d="M7.92297 8.99273L5.48256 11.2994L10.7311 16.9157L22.1308 5.51599L19.7907 3.14244L10.798 12.1017L7.92297 8.99273Z" fill="url(#paint0_linear_60_741)"/>
<path d="M11.5 19.657C6.98692 19.657 3.34302 16.0131 3.34302 11.5C3.34302 6.98692 6.98692 3.34302 11.5 3.34302V0C5.14826 0 0 5.14826 0 11.5C0 17.8517 5.14826 23 11.5 23C17.8517 23 23 17.8517 23 11.5H19.657C19.657 16.0131 16.0131 19.657 11.5 19.657Z" fill="url(#paint1_linear_60_741)"/>
<defs>
<linearGradient id="paint0_linear_60_741" x1="0.0215921" y1="-9.2693e-07" x2="26.5263" y2="5.2366" gradientUnits="userSpaceOnUse">
<stop stop-color="#F4A91E"/>
<stop offset="1" stop-color="#FFC600"/>
</linearGradient>
<linearGradient id="paint1_linear_60_741" x1="0.0215921" y1="-9.2693e-07" x2="26.5263" y2="5.2366" gradientUnits="userSpaceOnUse">
<stop stop-color="#F4A91E"/>
<stop offset="1" stop-color="#FFC600"/>
</linearGradient>
</defs>
</svg>
