<svg width="419" height="464" viewBox="0 0 419 464" fill="none" xmlns="http://www.w3.org/2000/svg">
<g style="mix-blend-mode:multiply">
<path d="M321.786 390.776H319.59L319.287 388.602C318.707 384.305 318.127 380.538 317.647 377.226C315.326 361.78 314.367 355.384 319.212 347.75C324.107 340.065 330.794 335.262 337.305 330.635C344.294 325.655 350.88 320.928 355.574 312.788C359.965 305.153 359.763 296.76 355.044 290.845C349.366 283.741 338.642 281.769 326.353 285.586C318.859 287.912 313.963 290.415 310.38 292.235C298.924 298.075 297.586 295.977 284.742 276.031C283.405 273.958 281.941 271.682 280.301 269.155L279.09 267.284L280.806 265.843C307.705 243.268 340.711 236.291 369.049 247.212C389.892 255.225 403.922 271.455 406.597 290.592C409.625 312.307 397.639 334.604 372.783 353.362C357.29 365.067 357.921 372.625 358.4 378.136C358.627 380.892 358.88 383.748 356.76 386.074C353.429 389.689 345.278 390.802 321.811 390.802L321.786 390.776ZM338.087 278.609C346.818 278.609 354.211 281.719 358.98 287.685C365.011 295.243 365.39 305.81 359.939 315.29C354.716 324.391 347.348 329.649 340.232 334.731C333.847 339.281 327.842 343.579 323.476 350.429C319.641 356.471 320.448 361.907 322.644 376.443C323.047 379.198 323.527 382.257 324.006 385.695C337.355 385.644 350.679 385.189 353.05 382.611C353.656 381.954 353.58 380.765 353.379 378.515C352.874 372.6 352.041 362.665 369.755 349.292C393.071 331.697 404.376 311.094 401.601 291.274C399.178 273.983 386.334 259.27 367.232 251.914C341.216 241.903 310.91 248.02 285.752 268.27C286.912 270.065 287.972 271.708 288.982 273.25C295.063 282.705 298.419 287.912 300.791 289.53C302.229 290.516 303.289 290.112 308.084 287.685C311.818 285.789 316.941 283.185 324.839 280.707C329.457 279.266 333.923 278.559 338.087 278.559V278.609Z" fill="#807D76"/>
</g>
<g style="mix-blend-mode:multiply">
<path d="M336.046 452.738C323.454 452.738 310.711 444.244 310.711 428.014C310.711 411.784 323.454 403.366 336.046 403.366C348.638 403.366 361.507 411.835 361.507 428.014C361.507 444.193 348.688 452.738 336.046 452.738ZM336.046 408.397C326.28 408.397 315.758 414.54 315.758 427.989C315.758 441.438 326.28 447.657 336.046 447.657C345.811 447.657 356.46 441.488 356.46 427.989C356.46 414.489 345.862 408.397 336.046 408.397Z" fill="#807D76"/>
</g>
<g style="mix-blend-mode:multiply">
<path d="M321.788 401.698H310.08L308.49 390.069C307.91 385.898 307.38 382.232 306.9 379.022C304.453 362.716 302.989 352.958 310.029 341.886C316.06 332.406 323.984 326.743 330.974 321.738L333.396 320.019L336.348 324.114L333.926 325.858C327.289 330.586 319.795 335.945 314.294 344.591C308.263 354.071 309.474 362.11 311.872 378.112C312.376 381.525 312.931 385.19 313.512 389.412L314.496 396.667H321.814C345.231 396.667 355.854 395.757 361.078 390.044C364.938 385.822 364.51 380.918 364.232 377.657C363.778 372.373 364.333 367.317 375.562 358.646L378.641 362.641C368.673 370.351 368.976 373.84 369.254 377.227C369.556 380.867 370.137 387.642 364.787 393.482C358.352 400.485 347.931 401.749 321.814 401.749L321.788 401.698Z" fill="#807D76"/>
<path d="M352.346 305.482L347.476 304.143C347.703 303.283 347.83 302.449 347.83 301.64C347.83 300.426 347.552 299.314 346.997 298.379C346.568 297.646 345.962 296.988 345.23 296.458L348.158 292.337C349.495 293.298 350.555 294.46 351.362 295.826C352.346 297.545 352.851 299.491 352.851 301.615C352.851 302.879 352.674 304.168 352.321 305.457L352.346 305.482Z" fill="#807D76"/>
<path d="M302.206 306.064C291.104 306.064 286.233 298.505 275.585 281.947L264.684 265.11L273.793 257.451C296.075 238.743 322.015 229.643 348.031 231.488L347.678 236.544C322.949 234.8 298.32 243.496 277.048 261.344L271.371 266.122L279.849 279.217C290.069 295.067 293.879 301.008 302.257 301.008C306.118 301.008 309.348 299.365 313.082 297.469C316.64 295.649 321.081 293.373 328.122 291.199C330.62 290.416 333.042 289.91 335.313 289.682L335.818 294.713C333.875 294.915 331.781 295.345 329.61 296.028C322.974 298.075 318.76 300.249 315.353 301.969C311.417 303.991 307.329 306.064 302.257 306.064H302.206Z" fill="#807D76"/>
<path d="M409.303 329.144L404.887 326.692C410.236 317.06 412.962 307.201 412.962 297.367C412.962 293.348 412.507 289.303 411.599 285.385L416.52 284.247C417.504 288.545 418.008 292.969 418.008 297.367C418.008 308.061 415.081 318.754 409.277 329.144H409.303Z" fill="#807D76"/>
</g>
<g style="mix-blend-mode:multiply">
<path d="M336.045 463.659C318.053 463.659 299.809 451.423 299.809 428.014C299.809 404.605 318.027 392.445 336.045 392.445C354.062 392.445 372.407 404.908 372.407 428.014C372.407 434.966 370.716 441.236 367.385 446.721L363.07 444.092C365.896 439.441 367.36 434.031 367.36 428.039C367.36 408.22 351.21 397.527 336.045 397.527C320.879 397.527 304.855 408.018 304.855 428.039C304.855 448.061 320.551 458.628 336.045 458.628V463.684V463.659Z" fill="#807D76"/>
</g>
<g style="mix-blend-mode:multiply">
<path d="M183.475 257.728H181.28L180.977 255.554C179.968 248.147 179.009 241.676 178.151 235.988C174.239 209.899 172.624 199.104 180.573 186.565C188.774 173.647 200.155 165.532 211.182 157.67C222.815 149.353 234.851 140.783 243.078 126.424C251.001 112.647 250.597 97.4283 242.018 86.6843C231.773 73.8674 212.62 70.2523 190.742 77.0526C177.696 81.0974 169.218 85.4203 163.01 88.5803C144.791 97.858 143.479 95.7851 121.299 61.3538C119.002 57.7893 116.479 53.8709 113.678 49.5481L112.467 47.6773L114.183 46.2364C159.907 7.83617 215.926 -4.02012 264.022 14.5101C299.198 28.0601 322.918 55.3877 327.409 87.6196C332.532 124.25 312.143 161.968 270.002 193.77C242.573 214.5 243.784 228.606 244.566 237.934C244.945 242.485 245.323 246.807 242.22 250.195C236.996 255.908 222.714 257.728 183.5 257.728H183.475ZM211.485 68.6091C225.944 68.6091 238.157 73.7157 245.98 83.5243C255.871 95.9115 256.452 113.304 247.468 128.927C238.687 144.221 226.196 153.145 214.109 161.766C203.006 169.704 192.509 177.186 184.838 189.27C177.873 200.216 179.311 209.747 183.147 235.229C183.929 240.386 184.787 246.15 185.696 252.672C219.837 252.596 234.7 250.928 238.51 246.782C240.05 245.114 239.923 242.737 239.545 238.364C238.662 227.923 237.324 212.123 266.974 189.725C307.601 159.061 327.283 123.062 322.413 88.3022C318.149 57.9157 295.665 32.0796 262.205 19.2121C216.431 1.59203 163.111 12.6141 119.129 48.6633C121.45 52.253 123.595 55.5647 125.538 58.5983C136.136 75.0555 141.965 84.1057 146.356 87.114C149.763 89.4398 152.538 88.2264 160.739 84.0552C167.098 80.8193 175.804 76.3701 189.279 72.1989C197.051 69.7973 204.52 68.6091 211.485 68.6091Z" fill="#F8B200"/>
</g>
<g style="mix-blend-mode:multiply">
<path d="M207.977 364.182C187.891 364.182 166.266 351.441 166.266 323.507C166.266 295.573 187.891 282.958 207.977 282.958C228.064 282.958 249.941 296.887 249.941 323.507C249.941 350.127 228.846 364.182 207.977 364.182ZM207.977 288.014C190.314 288.014 171.312 299.137 171.312 323.507C171.312 347.877 190.314 359.126 207.977 359.126C225.641 359.126 244.895 347.978 244.895 323.507C244.895 299.036 225.767 288.014 207.977 288.014Z" fill="#F8B200"/>
</g>
<g style="mix-blend-mode:multiply">
<path d="M183.476 269.434H171.086L169.395 257.148C168.386 249.791 167.427 243.395 166.594 237.733C162.481 210.304 160.412 196.526 170.733 180.271C170.985 179.892 171.237 179.488 171.49 179.108L175.704 181.889L174.997 182.976C165.686 197.613 167.68 210.759 171.591 236.974C172.449 242.637 173.408 249.083 174.417 256.44L175.502 264.352H183.476C225.919 264.352 240.202 262.178 247.091 254.67C249.185 252.37 250.497 249.766 251.078 246.656L256.023 247.592C255.266 251.662 253.551 255.1 250.8 258.083C242.65 266.956 228.19 269.408 183.476 269.408V269.434Z" fill="#F8B200"/>
<path d="M241.968 109.69L236.947 109.109C237.048 108.173 237.123 107.263 237.123 106.353C237.123 102.687 236.24 99.3252 234.499 96.3169C229.881 88.3285 219.46 84.3089 206.54 85.6235L206.035 80.5928C221.024 79.0507 233.237 84.0056 238.865 93.7889C241.06 97.5809 242.17 101.803 242.17 106.353C242.17 107.44 242.094 108.578 241.968 109.69Z" fill="#F8B200"/>
<path d="M149.838 105.063C135.581 105.063 129.02 94.9009 111.533 67.6997C109.237 64.1352 106.713 60.2168 103.912 55.9192L97.0488 45.3522L106.688 37.2626C128.087 19.2886 151.352 6.74974 175.779 0L177.116 4.87903C153.371 11.4518 130.761 23.6367 109.918 41.1557L103.711 46.3634L108.127 53.1637C110.927 57.4866 113.451 61.405 115.747 64.9694C132.629 91.1847 138.332 100.007 149.813 100.007C152.69 100.007 155.566 99.3248 159.124 97.808L161.093 102.46C156.878 104.254 153.396 105.038 149.813 105.038L149.838 105.063Z" fill="#F8B200"/>
<path d="M309.767 172.612L305.906 169.351C324.857 146.978 334.875 122.634 334.875 98.8959C334.875 92.7276 334.193 86.5087 332.881 80.4415L337.802 79.3545C339.215 85.7756 339.922 92.3484 339.922 98.8959C339.922 123.822 329.5 149.329 309.767 172.612Z" fill="#F8B200"/>
</g>
<g style="mix-blend-mode:multiply">
<path d="M208.229 375.862H207.977C181.456 375.862 154.582 357.863 154.582 323.482C154.582 317.162 155.516 311.145 157.358 305.634L162.152 307.227C160.487 312.232 159.654 317.693 159.654 323.482C159.654 354.551 183.98 370.806 208.002 370.806L208.255 375.862H208.229ZM256.048 348.029L251.556 345.754C254.887 339.181 256.578 331.698 256.578 323.482C256.578 312.763 253.726 303.359 248.099 295.573L252.187 292.615C258.445 301.286 261.624 311.676 261.624 323.482C261.624 332.482 259.757 340.748 256.073 348.029H256.048Z" fill="#F8B200"/>
</g>
<g style="mix-blend-mode:multiply">
<path d="M53.6241 225.699H51.4288L51.126 223.525C50.5961 219.556 50.0662 216.068 49.6119 213.009C47.5175 199.08 46.5586 192.709 51.1007 185.58C55.6429 178.426 61.8504 174.002 67.8813 169.704C74.316 165.103 80.4226 160.755 84.7123 153.247C88.7245 146.244 88.5479 138.559 84.2329 133.175C79.0347 126.652 69.1935 124.858 57.8887 128.372C50.9493 130.52 46.4325 132.821 43.1521 134.515C32.4024 139.975 31.1659 138.028 19.1798 119.448C17.9434 117.526 16.5807 115.428 15.0667 113.077L13.8555 111.206L15.5714 109.765C40.5025 88.8337 71.1113 82.3621 97.405 92.4993C116.759 99.9569 129.78 114.998 132.278 132.77C135.104 152.944 123.976 173.623 100.913 191.015C86.6554 201.784 87.261 208.711 87.6899 213.767C87.9171 216.371 88.1442 219.051 86.1254 221.25C83.0217 224.637 75.4263 225.674 53.6494 225.674L53.6241 225.699ZM68.6888 121.571C76.8394 121.571 83.7282 124.478 88.1694 130.04C93.7966 137.093 94.1498 146.952 89.0778 155.8C84.2329 164.269 77.3945 169.123 70.7832 173.85C64.9037 178.047 59.3522 182.016 55.34 188.336C51.8325 193.872 52.5896 198.877 54.583 212.276C54.9615 214.778 55.3653 217.559 55.8195 220.669C68.058 220.618 80.2459 220.188 82.3656 217.888C82.8703 217.357 82.7946 216.219 82.6179 214.247C82.1385 208.736 81.3562 199.484 97.834 187.046C119.359 170.817 129.78 151.806 127.232 133.554C125.011 117.628 113.151 104.078 95.5629 97.2772C71.6159 88.05 43.7072 93.6622 20.5172 112.293C21.5518 113.886 22.5107 115.378 23.3939 116.768C29.0211 125.49 32.0996 130.293 34.2697 131.784C35.4557 132.593 36.2632 132.391 40.8305 130.065C44.2876 128.296 49.0316 125.894 56.3746 123.619C60.6644 122.279 64.828 121.622 68.6888 121.622V121.571Z" fill="#5133CD"/>
</g>
<g style="mix-blend-mode:multiply">
<path d="M53.6215 236.216H42.2663L40.727 224.941C40.1971 221.073 39.6924 217.685 39.2382 214.677C36.9671 199.484 35.5793 190.383 42.2158 179.942C47.843 171.069 55.2365 165.786 61.7721 161.134C64.1693 159.415 66.4404 157.797 68.4843 156.104L71.7142 159.997C69.5189 161.817 67.1721 163.485 64.6992 165.255C58.5674 169.628 51.6028 174.608 46.4803 182.647C40.8532 191.495 41.9887 198.953 44.2093 213.792C44.6887 216.927 45.1934 220.34 45.7233 224.233L46.657 231.134H53.5963C75.3227 231.134 85.1892 230.275 90.0845 224.941C93.7182 220.972 93.3145 216.169 93.0622 213.312C92.6332 208.231 93.1631 203.68 104.14 195.389C105.502 194.352 106.84 193.316 108.127 192.279L111.332 196.197C109.994 197.285 108.606 198.372 107.193 199.433C97.579 206.689 97.8314 209.697 98.1089 212.882C98.3865 216.093 98.9417 222.767 93.8192 228.379C87.7378 235.027 77.9975 236.216 53.6215 236.216Z" fill="#5133CD"/>
<path d="M81.6065 146.827L76.7616 145.386C77.014 144.577 77.1149 143.793 77.1149 143.035C77.1149 142.023 76.8878 141.113 76.4336 140.304L80.5467 137.347C80.6477 137.498 80.7234 137.65 80.8243 137.802C81.7075 139.344 82.1617 141.113 82.1617 143.035C82.1617 144.273 81.9598 145.537 81.5813 146.827H81.6065Z" fill="#5133CD"/>
<path d="M35.5041 147.736C24.9059 147.736 20.3385 140.657 10.3711 125.161L10.0683 124.706C8.90758 122.911 7.67111 120.964 6.28325 118.841L0 109.159L8.83187 101.752C27.833 85.8001 49.6099 77.3818 71.8158 77.3818C75.9036 77.3818 80.0168 77.6852 84.0037 78.2414L83.272 83.2468C79.5121 82.7159 75.6513 82.4378 71.8158 82.4378C50.7959 82.4378 30.1293 90.4516 12.0618 105.645L6.66176 110.195L10.5225 116.136C11.9104 118.285 13.1721 120.231 14.3329 122.026L14.6104 122.481C24.7292 138.205 27.9844 142.73 35.5041 142.73C39.1378 142.73 42.1407 141.214 45.5977 139.419C48.9034 137.75 52.9912 135.652 59.4764 133.63C64.3465 132.113 68.9139 131.734 72.6232 132.467L71.6391 137.422C68.7877 136.84 65.0278 137.194 60.9652 138.458C54.8838 140.354 50.9978 142.326 47.8688 143.919C44.1594 145.815 40.3238 147.761 35.4789 147.761L35.5041 147.736Z" fill="#5133CD"/>
<path d="M136.589 165.963L132.072 163.688C136.135 155.598 138.179 147.332 138.179 139.091C138.179 135.349 137.75 131.582 136.892 127.892L141.813 126.754C142.746 130.824 143.226 134.97 143.226 139.091C143.226 148.115 140.98 157.14 136.564 165.938L136.589 165.963Z" fill="#5133CD"/>
</g>
<g style="mix-blend-mode:multiply">
<path d="M66.8194 309.83C49.8622 309.83 32.7031 298.303 32.7031 276.258C32.7031 254.214 49.8622 242.737 66.8194 242.737C83.7766 242.737 101.062 254.492 101.062 276.258C101.062 287.104 96.5197 296.508 88.2935 302.727L85.2654 298.682C90.186 294.966 96.0403 288.09 96.0403 276.258C96.0403 257.779 81.0009 247.793 66.8446 247.793C52.6884 247.793 37.7751 257.577 37.7751 276.258C37.7751 294.94 52.3856 304.774 66.8446 304.774V309.83H66.8194Z" fill="#5133CD"/>
</g>
<g style="mix-blend-mode:multiply">
<path d="M66.8182 299.34C55.0844 299.34 43.1992 291.428 43.1992 276.285C43.1992 261.142 55.0844 253.28 66.8182 253.28C78.552 253.28 90.5633 261.193 90.5633 276.285C90.5633 291.377 78.6024 299.34 66.8182 299.34ZM66.8182 258.336C57.8854 258.336 48.246 263.948 48.246 276.285C48.246 288.622 57.8854 294.284 66.8182 294.284C75.751 294.284 85.5165 288.647 85.5165 276.285C85.5165 270.723 83.523 266.097 79.7632 262.861C76.3566 259.954 71.764 258.336 66.8182 258.336Z" fill="#5133CD"/>
</g>
</svg>
