<svg width="59" height="59" viewBox="0 0 59 59" fill="none" xmlns="http://www.w3.org/2000/svg">
<rect opacity="0.08" width="59" height="59" rx="12" fill="url(#paint0_linear_60_1702)"/>
<g clip-path="url(#clip0_60_1702)">
<path d="M35.9189 46.0007H8.81326C8.36397 46.0007 8 45.6381 8 45.1904C8 37.2968 14.4449 30.875 22.3668 30.875C30.288 30.875 36.7322 37.2968 36.7322 45.1904C36.7322 45.6381 36.3682 46.0007 35.9189 46.0007ZM9.65219 44.38H35.08C34.6594 37.7566 29.1176 32.4957 22.3661 32.4957C15.6146 32.4957 10.072 37.7566 9.65144 44.38H9.65219Z" fill="#5133CD"/>
<path d="M22.3719 32.5004C21.3639 32.5004 20.3777 32.1949 19.4406 31.5923C18.7579 31.1604 18.1153 30.572 17.5853 29.8911C17.5618 29.8677 17.5399 29.8429 17.5196 29.8173C16.3189 28.2847 15.6016 26.293 15.6016 24.4903C15.6016 20.7703 18.6386 17.7441 22.3719 17.7441C26.1052 17.7441 29.1295 20.7703 29.1302 24.4903C29.1302 26.2757 28.4159 28.2651 27.2198 29.8121C25.8787 31.5464 24.157 32.5012 22.3719 32.5012V32.5004ZM18.7715 28.7813C18.7972 28.8068 18.8206 28.8339 18.8425 28.8625C19.2646 29.4125 19.7743 29.8843 20.3173 30.2274C20.9923 30.6615 21.6818 30.8797 22.3719 30.8797C25.1357 30.8797 27.5037 27.366 27.5037 24.4895C27.5037 21.613 25.2014 19.3641 22.3719 19.3641C19.5425 19.3641 17.2281 21.6635 17.2281 24.4895C17.2281 25.9289 17.8042 27.5292 18.7715 28.7813Z" fill="#5133CD"/>
<path d="M43.016 30.0098C35.0926 33.4889 27.4387 25.8625 30.9304 17.9674C31.7399 16.1375 33.2123 14.6703 35.0488 13.8645C42.9722 10.3861 50.6253 18.0118 47.1344 25.9069C46.3257 27.7367 44.8532 29.2039 43.0168 30.0098H43.016ZM42.5561 15.4491C35.89 12.2702 29.3295 18.8071 32.5199 25.4494C33.1444 26.7503 34.2023 27.8037 35.5079 28.4267C42.1741 31.6049 48.7338 25.0687 45.5441 18.4264C44.9197 17.1255 43.8617 16.0721 42.5569 15.4491H42.5561Z" fill="#807D76"/>
<path d="M37.1578 24.9968L34.7619 22.6094C34.444 22.2926 34.444 21.7802 34.7619 21.4635C35.0798 21.1467 35.594 21.1467 35.9119 21.4635L37.7332 23.2783L42.1484 18.8782C42.4663 18.5614 42.9805 18.5614 43.2985 18.8782C43.6164 19.195 43.6164 19.7074 43.2985 20.0241L38.2422 25.0623C37.8805 25.3279 37.432 25.2699 37.1578 24.9968Z" fill="#807D76"/>
</g>
<defs>
<linearGradient id="paint0_linear_60_1702" x1="10.6717" y1="-5.20936" x2="70.4077" y2="45.5814" gradientUnits="userSpaceOnUse">
<stop offset="0.279814" stop-color="#8B57FF"/>
<stop offset="0.94" stop-color="#5445FF"/>
</linearGradient>
<clipPath id="clip0_60_1702">
<rect width="40" height="33" fill="white" transform="translate(8 13)"/>
</clipPath>
</defs>
</svg>
