<svg width="59" height="59" viewBox="0 0 59 59" fill="none" xmlns="http://www.w3.org/2000/svg">
<rect opacity="0.08" width="59" height="59" rx="12" fill="url(#paint0_linear_60_1527)"/>
<g clip-path="url(#clip0_60_1527)">
<path d="M22.7396 31.4763C22.6321 31.1807 22.3519 30.9844 22.0379 30.9844C21.7238 30.9844 21.4436 31.1807 21.3368 31.4763L19.098 37.4462C18.954 37.8338 19.1504 38.2643 19.538 38.4089C19.9257 38.5528 20.3562 38.3558 20.5007 37.9688L20.8737 36.9613H23.2021L23.575 37.9688C23.7189 38.3558 24.1501 38.5534 24.5377 38.4089C24.9247 38.2643 25.1223 37.8338 24.9778 37.4462L22.7389 31.4763H22.7396ZM21.4334 35.4684L22.0379 33.8641L22.6424 35.4684H21.4334Z" fill="#5133CD"/>
<path d="M39.947 17.5587H37.7081V16.8129C37.7081 16.4003 37.3742 16.0664 36.9623 16.0664C36.5503 16.0664 36.2158 16.4003 36.2158 16.8129V17.5587H33.977C33.565 17.5587 33.2305 17.8933 33.2305 18.3052C33.2305 18.7171 33.565 19.0517 33.977 19.0517H38.3721C38.1508 20.0265 37.6627 20.9201 36.9617 21.634C36.7352 21.3999 36.526 21.1504 36.3348 20.8875C36.0917 20.5734 35.6452 20.505 35.319 20.7321C34.9928 20.9585 34.9013 21.4011 35.1111 21.7382C35.3375 22.0638 35.587 22.3734 35.8569 22.6632C35.3874 23.0278 34.8885 23.3527 34.3646 23.6335C34.0301 23.835 33.9072 24.2611 34.0838 24.6097C34.2597 24.9583 34.6755 25.1118 35.0363 24.9615C35.7201 24.6007 36.3655 24.1702 36.9617 23.6777C37.5514 24.1619 38.1892 24.5847 38.8647 24.9384C39.2254 25.0888 39.6412 24.9353 39.8171 24.5866C39.9937 24.238 39.8709 23.812 39.5363 23.6105C39.0124 23.3323 38.5135 23.0099 38.0433 22.6478C39.0156 21.6679 39.6617 20.4116 39.8939 19.051C40.3065 19.0651 40.6519 18.7427 40.666 18.3308C40.6807 17.9182 40.3583 17.5728 39.9457 17.5581L39.947 17.5587Z" fill="#807D76"/>
<path d="M30.9929 42.1848C30.9929 42.3824 30.9142 42.5724 30.7748 42.7125C30.6347 42.8526 30.4447 42.9312 30.2471 42.9312H20.5452C20.2318 42.9312 20.3808 42.8865 16.814 45.2673V43.6777C16.814 42.1854 14.0008 43.4244 13.299 42.7003C12.9856 42.4016 13.0822 43.4986 13.0822 27.2603C13.0822 26.8483 13.4167 26.5138 13.8287 26.5138H25.1163V25.0215H13.8287C13.2351 25.0215 12.6658 25.2575 12.2455 25.6771C11.8259 26.0974 11.5898 26.6667 11.5898 27.2603V42.1854C11.5898 42.7796 11.8259 43.3489 12.2455 43.7686C12.6658 44.1882 13.2351 44.4242 13.8287 44.4242H15.321V46.663C15.321 46.8607 15.3997 47.0506 15.5398 47.1907C15.6799 47.3308 15.8699 47.4095 16.0675 47.4095C16.3886 47.4095 16.1123 47.5291 20.7691 44.4242H30.2471C30.8407 44.4242 31.41 44.1882 31.8302 43.7686C32.2505 43.3489 32.4859 42.779 32.4859 42.1854V32.3238H30.9929V42.1854V42.1848Z" fill="#5133CD"/>
<path d="M46.756 12.2435C46.3364 11.8239 45.7664 11.5879 45.1728 11.5879H28.7545C28.1609 11.5879 27.5915 11.8239 27.1713 12.2435C26.751 12.6638 26.5156 13.2331 26.5156 13.8267V25.0207V28.7518C26.5156 29.346 26.7517 29.9153 27.1713 30.335C27.5909 30.7546 28.1602 30.9906 28.7545 30.9906H38.2331C42.8598 34.0801 42.6212 33.9759 42.9346 33.9759C43.1323 33.9759 43.3223 33.8972 43.4624 33.7571C43.6024 33.617 43.6811 33.4271 43.6811 33.2294V30.9906H45.1735C45.7671 30.9906 46.3364 30.7546 46.7567 30.335C47.1763 29.9153 47.4123 29.3454 47.4123 28.7518V13.8267C47.4123 13.2331 47.1763 12.6638 46.7567 12.2435H46.756ZM45.7006 29.2795C45.5605 29.4196 45.3705 29.4983 45.1728 29.4983H42.934C42.522 29.4983 42.1875 29.8322 42.1875 30.2448V31.8343C38.613 29.4535 38.7698 29.4983 38.4563 29.4983H28.7545C28.3425 29.4983 28.0086 29.1644 28.0086 28.7518V13.8267C28.0086 13.4148 28.3425 13.0802 28.7545 13.0802H45.1728C45.3705 13.0802 45.5605 13.1589 45.7006 13.299C45.8406 13.4391 45.9193 13.629 45.9193 13.8267V28.7518C45.9193 28.9495 45.8406 29.1394 45.7006 29.2795Z" fill="#807D76"/>
</g>
<defs>
<linearGradient id="paint0_linear_60_1527" x1="10.6717" y1="-5.20936" x2="70.4077" y2="45.5814" gradientUnits="userSpaceOnUse">
<stop offset="0.279814" stop-color="#8B57FF"/>
<stop offset="0.94" stop-color="#5445FF"/>
</linearGradient>
<clipPath id="clip0_60_1527">
<rect width="35.8214" height="35.8214" fill="white" transform="translate(11.5898 11.5879)"/>
</clipPath>
</defs>
</svg>
