<svg width="29" height="30" viewBox="0 0 29 30" fill="none" xmlns="http://www.w3.org/2000/svg">
<circle cx="14.115" cy="14.9236" r="13.115" fill="white" stroke="#D02727" stroke-width="2"/>
<g clip-path="url(#clip0_93_2038)">
<path d="M19.7263 9.27365C19.3615 8.90878 18.7697 8.90878 18.4048 9.27365L14.0003 13.6787L9.59518 9.27365C9.23031 8.90878 8.63852 8.90878 8.27365 9.27365C7.90878 9.63852 7.90878 10.2303 8.27365 10.5952L12.6787 15.0003L8.27365 19.4054C7.90878 19.7702 7.90878 20.362 8.27365 20.7269C8.63852 21.0918 9.23031 21.0918 9.59518 20.7269L14.0003 16.3218L18.4048 20.7264C18.7697 21.0912 19.3615 21.0912 19.7263 20.7264C20.0912 20.3615 20.0912 19.7697 19.7263 19.4048L15.3213 14.9997L19.7263 10.5952C20.0912 10.2303 20.0912 9.63852 19.7263 9.27365Z" fill="#D02727"/>
</g>
<defs>
<clipPath id="clip0_93_2038">
<rect width="12" height="12" fill="white" transform="matrix(-1 0 0 1 20 9)"/>
</clipPath>
</defs>
</svg>
