<svg width="70" height="48" viewBox="0 0 70 48" fill="none" xmlns="http://www.w3.org/2000/svg">
<rect x="0.5" y="0.5" width="69" height="47" rx="5.5" fill="white" stroke="#D9D9D9"/>
<path fill-rule="evenodd" clip-rule="evenodd" d="M19.8 30.4824H16.6888C16.4759 30.4824 16.2948 30.6372 16.2616 30.8473L15.0033 38.8254C14.9783 38.9829 15.1002 39.1248 15.2599 39.1248H16.7452C16.9581 39.1248 17.1392 38.97 17.1724 38.7595L17.5118 36.6077C17.5445 36.397 17.726 36.2424 17.9385 36.2424H18.9234C20.9729 36.2424 22.1556 35.2506 22.4647 33.2854C22.6038 32.4256 22.4705 31.75 22.0678 31.2767C21.6257 30.7574 20.8413 30.4824 19.8 30.4824ZM20.159 33.3963C19.9889 34.5127 19.1358 34.5127 18.3111 34.5127H17.8416L18.1709 32.4277C18.1905 32.3018 18.2997 32.209 18.4271 32.209H18.6422C19.2041 32.209 19.7341 32.209 20.008 32.5292C20.1712 32.7203 20.2213 33.0041 20.159 33.3963ZM29.1002 33.3605H27.6103C27.4834 33.3605 27.3737 33.4534 27.3541 33.5795L27.2882 33.9961L27.184 33.8452C26.8615 33.377 26.1423 33.2205 25.4244 33.2205C23.7779 33.2205 22.3718 34.4675 22.0979 36.2168C21.9556 37.0892 22.1579 37.9235 22.6529 38.5054C23.107 39.0403 23.7567 39.2633 24.5295 39.2633C25.856 39.2633 26.5918 38.4102 26.5918 38.4102L26.5253 38.8243C26.5002 38.9827 26.6221 39.1245 26.7809 39.1245H28.123C28.3365 39.1245 28.5165 38.9698 28.5501 38.7593L29.3554 33.6599C29.3809 33.5031 29.2594 33.3605 29.1002 33.3605ZM27.0234 36.2603C26.8796 37.1115 26.204 37.6829 25.3426 37.6829C24.9099 37.6829 24.564 37.5441 24.3421 37.2812C24.1219 37.0201 24.0381 36.6483 24.1082 36.2344C24.2425 35.3904 24.9295 34.8005 25.7779 34.8005C26.2009 34.8005 26.5449 34.941 26.7714 35.2062C26.9983 35.4742 27.0885 35.8481 27.0234 36.2603ZM35.5379 33.3603H37.0352C37.2449 33.3603 37.3672 33.5955 37.2481 33.7675L32.2685 40.9553C32.1878 41.0717 32.055 41.141 31.9131 41.141H30.4177C30.2072 41.141 30.0842 40.9039 30.2061 40.7315L31.7567 38.5429L30.1076 33.7033C30.0506 33.5351 30.1748 33.3603 30.3537 33.3603H31.8249C32.016 33.3603 32.1847 33.4858 32.2398 33.6687L33.115 36.5917L35.1801 33.55C35.2609 33.4313 35.3952 33.3603 35.5379 33.3603Z" fill="#253B80"/>
<path fill-rule="evenodd" clip-rule="evenodd" d="M51.7703 38.8258L53.0471 30.7018C53.0667 30.5757 53.176 30.4828 53.3029 30.4824H54.7404C54.8991 30.4824 55.021 30.6247 54.996 30.7822L53.7368 38.7599C53.704 38.9704 53.5229 39.1252 53.3097 39.1252H52.0259C51.8671 39.1252 51.7452 38.9833 51.7703 38.8258ZM41.9915 30.4828H38.8797C38.6673 30.4828 38.4863 30.6376 38.453 30.8477L37.1947 38.8258C37.1696 38.9833 37.2915 39.1252 37.4505 39.1252H39.0471C39.1955 39.1252 39.3225 39.017 39.3456 38.8696L39.7027 36.6081C39.7355 36.3974 39.917 36.2429 40.1294 36.2429H41.1138C43.1637 36.2429 44.3463 35.2511 44.6555 33.2858C44.7951 32.426 44.661 31.7504 44.2585 31.2772C43.8166 30.7578 43.0328 30.4828 41.9915 30.4828ZM42.3505 33.3967C42.1808 34.5132 41.3277 34.5132 40.5025 34.5132H40.0334L40.3633 32.4281C40.3829 32.3022 40.4911 32.2094 40.6189 32.2094H40.8341C41.3955 32.2094 41.9261 32.2094 42.1997 32.5296C42.3631 32.7207 42.4128 33.0045 42.3505 33.3967ZM51.2909 33.361H49.8021C49.6741 33.361 49.5654 33.4538 49.5463 33.5799L49.4804 33.9965L49.3758 33.8456C49.0532 33.3774 48.3345 33.221 47.6166 33.221C45.9701 33.221 44.5644 34.4679 44.2905 36.2172C44.1486 37.0896 44.3501 37.9239 44.845 38.5058C45.3 39.0408 45.9488 39.2637 46.7217 39.2637C48.0482 39.2637 48.7838 38.4107 48.7838 38.4107L48.7174 38.8248C48.6924 38.9831 48.8143 39.125 48.9741 39.125H50.3156C50.528 39.125 50.709 38.9702 50.7423 38.7597L51.548 33.6603C51.5726 33.5035 51.4507 33.361 51.2909 33.361ZM49.2143 36.2608C49.0713 37.1119 48.3949 37.6833 47.5332 37.6833C47.1014 37.6833 46.7549 37.5445 46.5328 37.2816C46.3126 37.0205 46.2299 36.6488 46.2991 36.2349C46.4341 35.3909 47.1202 34.801 47.9686 34.801C48.3918 34.801 48.7356 34.9414 48.9623 35.2066C49.1901 35.4746 49.2802 35.8485 49.2143 36.2608Z" fill="#179BD7"/>
<path d="M31.3153 27.6276L31.6978 25.1981L30.8458 25.1784H26.7773L29.6047 7.25069C29.6134 7.19656 29.642 7.1461 29.6837 7.11027C29.7254 7.07444 29.7788 7.05469 29.8344 7.05469H36.6944C38.9719 7.05469 40.5435 7.5286 41.3641 8.464C41.7487 8.90282 41.9938 9.36137 42.1123 9.866C42.2365 10.3955 42.2389 11.0281 42.1174 11.7997L42.1085 11.856V12.3504L42.4934 12.5684C42.8174 12.7402 43.0746 12.937 43.2721 13.1622C43.6014 13.5374 43.8142 14.0142 43.9041 14.5796C43.997 15.161 43.9662 15.8529 43.8142 16.6361C43.6386 17.5372 43.3549 18.3219 42.9717 18.964C42.6191 19.5557 42.17 20.0463 41.637 20.4268C41.1279 20.788 40.5231 21.0623 39.8393 21.2379C39.1765 21.4103 38.4212 21.4975 37.5925 21.4975H37.0586C36.6769 21.4975 36.306 21.635 36.015 21.8815C35.7233 22.1331 35.53 22.4767 35.4708 22.8527L35.4306 23.0714L34.7548 27.3533L34.7241 27.5106C34.7161 27.5605 34.7022 27.5853 34.6818 27.6021C34.6635 27.6173 34.6372 27.6276 34.6115 27.6276H31.3153Z" fill="#253B80"/>
<path d="M42.8577 11.9141C42.8373 12.045 42.8139 12.1788 42.7876 12.3163C41.8828 16.9611 38.7878 18.5657 34.8348 18.5657H32.8221C32.3387 18.5657 31.9314 18.9168 31.856 19.3936L30.8255 25.929L30.5337 27.7815C30.4846 28.0945 30.7261 28.3768 31.0419 28.3768H34.6118C35.0345 28.3768 35.3935 28.0697 35.46 27.6528L35.4952 27.4714L36.1674 23.2061L36.2105 22.9722C36.2762 22.5539 36.636 22.2467 37.0588 22.2467H37.5927C41.0512 22.2467 43.7588 20.8425 44.5501 16.779C44.8807 15.0815 44.7095 13.6642 43.8348 12.6673C43.5701 12.3668 43.2417 12.1174 42.8577 11.9141Z" fill="#179BD7"/>
<path d="M41.9109 11.5376C41.7728 11.4974 41.63 11.4608 41.4837 11.4279C41.3368 11.3957 41.186 11.3672 41.0311 11.3423C40.4883 11.2546 39.8938 11.2129 39.2567 11.2129H33.8799C33.7475 11.2129 33.6218 11.2429 33.5092 11.297C33.2612 11.4162 33.0769 11.651 33.0323 11.9384L31.8883 19.1832L31.8555 19.3945C31.9308 18.9177 32.3382 18.5666 32.8216 18.5666H34.8342C38.7873 18.5666 41.8824 16.9613 42.7871 12.3172C42.814 12.1797 42.8368 12.0459 42.8572 11.915C42.6283 11.7936 42.3803 11.6897 42.1134 11.6012C42.0477 11.5793 41.9797 11.5581 41.9109 11.5376Z" fill="#222D65"/>
<path d="M33.0311 11.9373C33.0758 11.6499 33.2602 11.4151 33.508 11.2967C33.6215 11.2425 33.7465 11.2125 33.8787 11.2125H39.2558C39.8928 11.2125 40.4874 11.2542 41.0299 11.342C41.185 11.3669 41.3358 11.3954 41.4827 11.4276C41.629 11.4605 41.7716 11.4971 41.9099 11.5373C41.9785 11.5577 42.0465 11.5789 42.1131 11.6002C42.38 11.6887 42.628 11.7932 42.8568 11.9139C43.1261 10.1974 42.8547 9.02873 41.9267 7.97046C40.9036 6.80542 39.0568 6.30664 36.6939 6.30664H29.8337C29.3509 6.30664 28.9393 6.65767 28.8646 7.13525L26.0073 25.2472C25.9509 25.6055 26.2273 25.9289 26.5886 25.9289H30.824L31.8873 19.1821L33.0311 11.9373Z" fill="#253B80"/>
</svg>
