<svg width="70" height="48" viewBox="0 0 70 48" fill="none" xmlns="http://www.w3.org/2000/svg">
<rect x="0.5" y="0.5" width="69" height="47" rx="5.5" fill="#1F72CD" stroke="#D9D9D9"/>
<path fill-rule="evenodd" clip-rule="evenodd" d="M12.5493 17L6 31.4935H13.8405L14.8125 29.1826H17.0342L18.0062 31.4935H26.6364V29.7298L27.4054 31.4935H31.8696L32.6386 29.6925V31.4935H50.587L52.7695 29.2426L54.813 31.4935L64.0317 31.5121L57.4617 24.2872L64.0317 17H54.956L52.8315 19.2093L50.8523 17H31.3268L29.6501 20.7409L27.9341 17H20.11V18.7037L19.2396 17H12.5493ZM39.3516 19.0586H49.6584L52.8108 22.4637L56.0648 19.0586H59.2171L54.4274 24.2857L59.2171 29.4525H55.9218L52.7694 26.0078L49.4988 29.4525H39.3516V19.0586ZM41.8965 23.1093V21.2108V21.209H48.3276L51.1338 24.2452L48.2033 27.298H41.8965V25.2254H47.5193V23.1093H41.8965ZM14.0655 19.0586H17.8873L22.2315 28.8867V19.0586H26.4182L29.7735 26.1053L32.8659 19.0586H37.0316V29.4586H34.4969L34.4762 21.3092L30.7808 29.4586H28.5133L24.7972 21.3092V29.4586H19.5826L18.5941 27.1271H13.2531L12.2666 29.4566H9.47266L14.0655 19.0586ZM14.166 24.9718L15.9256 20.8184L17.6832 24.9718H14.166Z" fill="white"/>
</svg>
