<svg width="70" height="48" viewBox="0 0 70 48" fill="none" xmlns="http://www.w3.org/2000/svg">
<rect x="0.5" y="0.5" width="69" height="47" rx="5.5" fill="white" stroke="#D9D9D9"/>
<path d="M29.4688 47L68.9688 35.5V42C68.9688 44.7614 66.7302 47 63.9688 47H29.4688Z" fill="#FD6020"/>
<path fill-rule="evenodd" clip-rule="evenodd" d="M61.4703 19.2227C63.6434 19.2227 64.8386 20.1897 64.8386 22.0165C64.9473 23.4134 63.9694 24.5954 62.6655 24.8103L65.5992 28.7861H63.3174L60.8184 24.9177H60.6011V28.7861H58.7539V19.2227H61.4703ZM60.6016 23.6278H61.1448C62.3401 23.6278 62.8833 23.0905 62.8833 22.1235C62.8833 21.2638 62.3401 20.7266 61.1448 20.7266H60.6016V23.6278ZM52.3438 28.7861H57.5592V27.1742H54.1909V24.5954H57.4506V22.9835H54.1909V20.8345H57.5592V19.2227H52.3438V28.7861ZM46.91 25.6699L44.4109 19.2227H42.4551L46.4753 29.001H47.4532L51.4735 19.2227H49.5177L46.91 25.6699ZM24.8535 24.0566C24.8535 26.743 27.0266 28.9995 29.743 28.9995C30.6123 28.9995 31.3729 28.7846 32.1334 28.4622V26.3132C31.5902 26.9579 30.8296 27.3877 29.9603 27.3877C28.2218 27.3877 26.8093 26.0983 26.8093 24.379V24.1641C26.7007 22.4448 28.1132 20.9405 29.8517 20.833C30.7209 20.833 31.5902 21.2628 32.1334 21.9076V19.7585C31.4815 19.3287 30.6123 19.2212 29.8517 19.2212C27.0266 19.0063 24.8535 21.2628 24.8535 24.0566ZM21.4854 22.8751C20.3989 22.4453 20.0729 22.2304 20.0729 21.6931C20.1816 21.0484 20.7248 20.5111 21.3768 20.6186C21.9201 20.6186 22.4633 20.941 22.898 21.3708L23.8759 20.0813C23.1153 19.4366 22.1374 19.0068 21.1595 19.0068C19.6383 18.8993 18.3344 20.0813 18.2258 21.5857V21.6931C18.2258 22.9826 18.769 23.7348 20.5075 24.272C20.9422 24.3795 21.3768 24.5944 21.8114 24.8093C22.1374 25.0242 22.3547 25.3466 22.3547 25.7764C22.3547 26.5286 21.7027 27.1733 21.0508 27.1733H20.9422C20.0729 27.1733 19.3123 26.636 18.9863 25.8838L17.7911 27.0658C18.4431 28.2478 19.7469 28.8925 21.0508 28.8925C22.7893 29 24.2018 27.7106 24.3105 25.9913V25.6689C24.2018 24.3795 23.6585 23.7348 21.4854 22.8751ZM15.1836 28.7861H17.0307V19.2227H15.1836V28.7861ZM6.59961 19.2227H9.316H9.85928C12.467 19.3301 14.5315 21.4792 14.4228 24.0581C14.4228 25.455 13.7709 26.7444 12.6843 27.7115C11.7064 28.4637 10.5112 28.8935 9.316 28.7861H6.59961V19.2227ZM8.98859 27.1748C9.85784 27.2823 10.8357 26.9599 11.4877 26.4226C12.1396 25.7779 12.4656 24.9183 12.4656 23.9512C12.4656 23.0916 12.1396 22.2319 11.4877 21.5872C10.8357 21.0499 9.85784 20.7276 8.98859 20.835H8.44531V27.1748H8.98859Z" fill="black"/>
<path fill-rule="evenodd" clip-rule="evenodd" d="M37.6759 19C34.9595 19 32.6777 21.1491 32.6777 23.9429C32.6777 26.6292 34.8508 28.8858 37.6759 28.9932C40.5009 29.1007 42.6741 26.8441 42.7827 24.0503C42.6741 21.2565 40.5009 19 37.6759 19V19Z" fill="#FD6020"/>
</svg>
